<svg width="297" height="206" viewBox="0 0 297 206" fill="none" xmlns="http://www.w3.org/2000/svg">
<path d="M3.58239 20.1477C4.49645 20.1477 5.24432 19.3999 5.24432 18.4858C5.24432 17.5717 4.49645 16.8239 3.58239 16.8239C2.66832 16.8239 1.92045 17.5717 1.92045 18.4858C1.92045 19.3999 2.66832 20.1477 3.58239 20.1477ZM31.9783 7C31.2766 3.12216 28.1744 0.832386 24.3704 0.832386C19.5323 0.832386 16.0238 4.5625 16.0238 10.5455C16.0238 16.5284 19.5323 20.2585 24.3704 20.2585C28.1744 20.2585 31.2766 17.9688 31.9783 14.0909H29.6886C29.1346 16.7131 26.8817 18.1165 24.3704 18.1165C20.9357 18.1165 18.2397 15.4574 18.2397 10.5455C18.2397 5.63352 20.9357 2.97443 24.3704 2.97443C26.8817 2.97443 29.1346 4.37784 29.6886 7H31.9783ZM41.1444 20.2955C44.9853 20.2955 47.5705 17.3778 47.5705 12.983C47.5705 8.55114 44.9853 5.63352 41.1444 5.63352C37.3034 5.63352 34.7182 8.55114 34.7182 12.983C34.7182 17.3778 37.3034 20.2955 41.1444 20.2955ZM41.1444 18.3381C38.2267 18.3381 36.8972 15.8267 36.8972 12.983C36.8972 10.1392 38.2267 7.59091 41.1444 7.59091C44.062 7.59091 45.3915 10.1392 45.3915 12.983C45.3915 15.8267 44.062 18.3381 41.1444 18.3381ZM56.658 20.2955C60.4989 20.2955 63.0842 17.3778 63.0842 12.983C63.0842 8.55114 60.4989 5.63352 56.658 5.63352C52.8171 5.63352 50.2319 8.55114 50.2319 12.983C50.2319 17.3778 52.8171 20.2955 56.658 20.2955ZM56.658 18.3381C53.7404 18.3381 52.4109 15.8267 52.4109 12.983C52.4109 10.1392 53.7404 7.59091 56.658 7.59091C59.5756 7.59091 60.9052 10.1392 60.9052 12.983C60.9052 15.8267 59.5756 18.3381 56.658 18.3381ZM66.4103 25.3182H68.5893V17.821H68.774C69.2541 18.5966 70.1774 20.2955 72.9103 20.2955C76.4558 20.2955 78.9302 17.4517 78.9302 12.946C78.9302 8.47727 76.4558 5.63352 72.8734 5.63352C70.1035 5.63352 69.2541 7.33239 68.774 8.07102H68.5154V5.81818H66.4103V25.3182ZM68.5524 12.9091C68.5524 9.73295 69.9558 7.59091 72.6149 7.59091C75.3848 7.59091 76.7512 9.91761 76.7512 12.9091C76.7512 15.9375 75.3478 18.3381 72.6149 18.3381C69.9927 18.3381 68.5524 16.1222 68.5524 12.9091ZM88.2001 20.2955C91.0808 20.2955 93.1859 18.8551 93.8507 16.7131L91.7456 16.1222C91.1916 17.5994 89.9082 18.3381 88.2001 18.3381C85.6426 18.3381 83.8791 16.6854 83.7775 13.6477H94.0723V12.7244C94.0723 7.44318 90.9331 5.63352 87.9785 5.63352C84.1376 5.63352 81.5893 8.66193 81.5893 13.0199C81.5893 17.3778 84.1007 20.2955 88.2001 20.2955ZM83.7775 11.7642C83.9252 9.55753 85.4856 7.59091 87.9785 7.59091C90.3422 7.59091 91.8564 9.36364 91.8564 11.7642H83.7775ZM97.3869 20H99.5659V11.0256C99.5659 9.10511 101.08 7.7017 103.148 7.7017C103.73 7.7017 104.33 7.8125 104.478 7.84943V5.63352C104.229 5.61506 103.656 5.59659 103.333 5.59659C101.634 5.59659 100.157 6.55682 99.6397 7.96023H99.492V5.81818H97.3869V20ZM111.234 20.3324C113.708 20.3324 115.001 19.0028 115.444 18.0795H115.555V20H117.734V10.6562C117.734 6.15057 114.299 5.63352 112.49 5.63352C110.348 5.63352 107.91 6.37216 106.802 8.95739L108.87 9.69602C109.35 8.66193 110.486 7.55398 112.564 7.55398C114.567 7.55398 115.555 8.61577 115.555 10.4347V10.5085C115.555 11.5611 114.484 11.4688 111.899 11.8011C109.267 12.1428 106.396 12.7244 106.396 15.9744C106.396 18.7443 108.538 20.3324 111.234 20.3324ZM111.566 18.375C109.831 18.375 108.575 17.5994 108.575 16.0852C108.575 14.4233 110.089 13.9062 111.788 13.6847C112.711 13.5739 115.186 13.3153 115.555 12.8722V14.8665C115.555 16.6392 114.152 18.375 111.566 18.375ZM127.879 5.81818H124.85V2.42045H122.671V5.81818H120.529V7.66477H122.671V16.5284C122.671 19.0028 124.666 20.1847 126.512 20.1847C127.325 20.1847 127.842 20.0369 128.137 19.9261L127.694 17.9688C127.509 18.0057 127.214 18.0795 126.734 18.0795C125.774 18.0795 124.85 17.7841 124.85 15.9375V7.66477H127.879V5.81818ZM136.95 20.2955C139.831 20.2955 141.936 18.8551 142.601 16.7131L140.496 16.1222C139.942 17.5994 138.658 18.3381 136.95 18.3381C134.393 18.3381 132.629 16.6854 132.528 13.6477H142.822V12.7244C142.822 7.44318 139.683 5.63352 136.729 5.63352C132.888 5.63352 130.339 8.66193 130.339 13.0199C130.339 17.3778 132.851 20.2955 136.95 20.2955ZM132.528 11.7642C132.675 9.55753 134.236 7.59091 136.729 7.59091C139.092 7.59091 140.606 9.36364 140.606 11.7642H132.528ZM151.492 20.2955C154.225 20.2955 155.148 18.5966 155.628 17.821H155.887V20H157.992V1.09091H155.813V8.07102H155.628C155.148 7.33239 154.299 5.63352 151.529 5.63352C147.947 5.63352 145.472 8.47727 145.472 12.946C145.472 17.4517 147.947 20.2955 151.492 20.2955ZM151.787 18.3381C149.055 18.3381 147.651 15.9375 147.651 12.9091C147.651 9.91761 149.018 7.59091 151.787 7.59091C154.447 7.59091 155.85 9.73295 155.85 12.9091C155.85 16.1222 154.41 18.3381 151.787 18.3381ZM175.359 20.2955C178.498 20.2955 180.567 18.375 180.936 15.8636H178.757C178.351 17.4148 177.058 18.3381 175.359 18.3381C172.774 18.3381 171.112 16.196 171.112 12.9091C171.112 9.69602 172.811 7.59091 175.359 7.59091C177.28 7.59091 178.425 8.77273 178.757 10.0653H180.936C180.567 7.40625 178.314 5.63352 175.322 5.63352C171.481 5.63352 168.933 8.66193 168.933 12.983C168.933 17.2301 171.371 20.2955 175.359 20.2955ZM186.3 1.09091H184.121V20H186.3V1.09091ZM196.053 20.2955C199.893 20.2955 202.479 17.3778 202.479 12.983C202.479 8.55114 199.893 5.63352 196.053 5.63352C192.212 5.63352 189.626 8.55114 189.626 12.983C189.626 17.3778 192.212 20.2955 196.053 20.2955ZM196.053 18.3381C193.135 18.3381 191.805 15.8267 191.805 12.983C191.805 10.1392 193.135 7.59091 196.053 7.59091C198.97 7.59091 200.3 10.1392 200.3 12.983C200.3 15.8267 198.97 18.3381 196.053 18.3381ZM215.85 8.99432C215.167 6.98153 213.634 5.63352 210.828 5.63352C207.836 5.63352 205.62 7.33239 205.62 9.73295C205.62 11.6903 206.784 13.0014 209.387 13.6108L211.751 14.1648C213.182 14.4972 213.856 15.1804 213.856 16.1591C213.856 17.3778 212.563 18.375 210.532 18.375C208.75 18.375 207.633 17.6087 207.245 16.0852L205.177 16.6023C205.685 19.0121 207.67 20.2955 210.569 20.2955C213.865 20.2955 216.109 18.495 216.109 16.0483C216.109 14.0724 214.872 12.826 212.342 12.2074L210.237 11.6903C208.556 11.2749 207.799 10.7116 207.799 9.62216C207.799 8.40341 209.092 7.51704 210.828 7.51704C212.73 7.51704 213.514 8.5696 213.893 9.54829L215.85 8.99432ZM225.335 20.2955C228.216 20.2955 230.321 18.8551 230.985 16.7131L228.88 16.1222C228.326 17.5994 227.043 18.3381 225.335 18.3381C222.777 18.3381 221.014 16.6854 220.912 13.6477H231.207V12.7244C231.207 7.44318 228.068 5.63352 225.113 5.63352C221.272 5.63352 218.724 8.66193 218.724 13.0199C218.724 17.3778 221.235 20.2955 225.335 20.2955ZM220.912 11.7642C221.06 9.55753 222.62 7.59091 225.113 7.59091C227.477 7.59091 228.991 9.36364 228.991 11.7642H220.912ZM236.701 1.09091H234.522V20H236.701V1.09091ZM242.095 25.3182C244.062 25.3182 245.447 24.2749 246.268 22.0682L252.307 5.85511L249.925 5.81818L246.01 17.1193H245.862L241.947 5.81818H239.584L244.828 20.0739L244.422 21.1818C243.628 23.3423 242.649 23.5455 241.061 23.1392L240.507 25.0597C240.729 25.1705 241.356 25.3182 242.095 25.3182ZM5.20739 65H7.34943L10.4517 54.1051H10.6733L13.7756 65H15.9176L20.2386 50.8182H17.9489L14.8835 61.6392H14.7358L11.7443 50.8182H9.41761L6.3892 61.6761H6.24148L3.17614 50.8182H0.886364L5.20739 65ZM23.1193 65H25.2983V50.8182H23.1193V65ZM24.2273 48.4545C25.0767 48.4545 25.7784 47.7898 25.7784 46.9773C25.7784 46.1648 25.0767 45.5 24.2273 45.5C23.3778 45.5 22.6761 46.1648 22.6761 46.9773C22.6761 47.7898 23.3778 48.4545 24.2273 48.4545ZM35.4569 50.8182H32.4284V47.4205H30.2495V50.8182H28.1074V52.6648H30.2495V61.5284C30.2495 64.0028 32.2438 65.1847 34.0904 65.1847C34.9029 65.1847 35.4199 65.0369 35.7154 64.9261L35.2722 62.9688C35.0875 63.0057 34.7921 63.0795 34.312 63.0795C33.3517 63.0795 32.4284 62.7841 32.4284 60.9375V52.6648H35.4569V50.8182ZM41.2182 56.4688C41.2182 53.9943 42.7971 52.5909 44.9483 52.5909C46.998 52.5909 48.2353 53.8835 48.2353 56.1364V65H50.4142V55.9886C50.4142 52.3416 48.4753 50.6335 45.5762 50.6335C43.3418 50.6335 42.0676 51.5661 41.4029 53.0341H41.2182V46.0909H39.0392V65H41.2182V56.4688ZM67.8807 50.8182H64.8523V47.4205H62.6733V50.8182H60.5312V52.6648H62.6733V61.5284C62.6733 64.0028 64.6676 65.1847 66.5142 65.1847C67.3267 65.1847 67.8438 65.0369 68.1392 64.9261L67.696 62.9688C67.5114 63.0057 67.2159 63.0795 66.7358 63.0795C65.7756 63.0795 64.8523 62.7841 64.8523 60.9375V52.6648H67.8807V50.8182ZM73.642 56.4688C73.642 53.9943 75.2209 52.5909 77.3722 52.5909C79.4219 52.5909 80.6591 53.8835 80.6591 56.1364V65H82.8381V55.9886C82.8381 52.3416 80.8991 50.6335 78 50.6335C75.7656 50.6335 74.4915 51.5661 73.8267 53.0341H73.642V46.0909H71.4631V65H73.642V56.4688ZM92.7704 65.2955C95.6511 65.2955 97.7562 63.8551 98.421 61.7131L96.3159 61.1222C95.7619 62.5994 94.4785 63.3381 92.7704 63.3381C90.2129 63.3381 88.4494 61.6854 88.3478 58.6477H98.6426V57.7244C98.6426 52.4432 95.5034 50.6335 92.5488 50.6335C88.7079 50.6335 86.1596 53.6619 86.1596 58.0199C86.1596 62.3778 88.671 65.2955 92.7704 65.2955ZM88.3478 56.7642C88.4956 54.5575 90.0559 52.5909 92.5488 52.5909C94.9125 52.5909 96.4267 54.3636 96.4267 56.7642H88.3478ZM109.27 65H111.449V56.1364C111.449 54.0589 112.963 52.5909 114.662 52.5909C116.314 52.5909 117.469 53.6712 117.469 55.2869V65H119.684V55.767C119.684 53.9389 120.829 52.5909 122.824 52.5909C124.375 52.5909 125.704 53.4126 125.704 55.5085V65H127.883V55.5085C127.883 52.1754 126.092 50.6335 123.562 50.6335C121.531 50.6335 120.045 51.5661 119.315 53.0341H119.167C118.466 51.5199 117.229 50.6335 115.363 50.6335C113.517 50.6335 112.15 51.5199 111.559 53.0341H111.375V50.8182H109.27V65ZM136.041 65.3324C138.515 65.3324 139.808 64.0028 140.251 63.0795H140.362V65H142.541V55.6562C142.541 51.1506 139.106 50.6335 137.296 50.6335C135.154 50.6335 132.717 51.3722 131.609 53.9574L133.677 54.696C134.157 53.6619 135.293 52.554 137.37 52.554C139.374 52.554 140.362 53.6158 140.362 55.4347V55.5085C140.362 56.5611 139.291 56.4688 136.705 56.8011C134.074 57.1428 131.203 57.7244 131.203 60.9744C131.203 63.7443 133.345 65.3324 136.041 65.3324ZM136.373 63.375C134.637 63.375 133.382 62.5994 133.382 61.0852C133.382 59.4233 134.896 58.9062 136.595 58.6847C137.518 58.5739 139.992 58.3153 140.362 57.8722V59.8665C140.362 61.6392 138.958 63.375 136.373 63.375ZM146.518 65H148.697V56.0256C148.697 54.1051 150.211 52.7017 152.279 52.7017C152.861 52.7017 153.461 52.8125 153.609 52.8494V50.6335C153.359 50.6151 152.787 50.5966 152.464 50.5966C150.765 50.5966 149.288 51.5568 148.771 52.9602H148.623V50.8182H146.518V65ZM156.192 65H158.371V59.6911L159.894 58.2784L165.203 65H167.973L161.537 56.875L167.53 50.8182H164.834L158.629 57.1335H158.371V46.0909H156.192V65ZM175.696 65.2955C178.577 65.2955 180.682 63.8551 181.347 61.7131L179.242 61.1222C178.688 62.5994 177.404 63.3381 175.696 63.3381C173.139 63.3381 171.375 61.6854 171.274 58.6477H181.568V57.7244C181.568 52.4432 178.429 50.6335 175.475 50.6335C171.634 50.6335 169.085 53.6619 169.085 58.0199C169.085 62.3778 171.597 65.2955 175.696 65.2955ZM171.274 56.7642C171.421 54.5575 172.982 52.5909 175.475 52.5909C177.838 52.5909 179.352 54.3636 179.352 56.7642H171.274ZM191.051 50.8182H188.022V47.4205H185.843V50.8182H183.701V52.6648H185.843V61.5284C185.843 64.0028 187.838 65.1847 189.684 65.1847C190.497 65.1847 191.014 65.0369 191.309 64.9261L190.866 62.9688C190.681 63.0057 190.386 63.0795 189.906 63.0795C188.945 63.0795 188.022 62.7841 188.022 60.9375V52.6648H191.051V50.8182ZM194.328 65H196.507V50.8182H194.328V65ZM195.436 48.4545C196.286 48.4545 196.987 47.7898 196.987 46.9773C196.987 46.1648 196.286 45.5 195.436 45.5C194.587 45.5 193.885 46.1648 193.885 46.9773C193.885 47.7898 194.587 48.4545 195.436 48.4545ZM202.677 56.4688C202.677 53.9943 204.21 52.5909 206.297 52.5909C208.319 52.5909 209.547 53.9112 209.547 56.1364V65H211.725V55.9886C211.725 52.3693 209.796 50.6335 206.924 50.6335C204.782 50.6335 203.453 51.5938 202.788 53.0341H202.603V50.8182H200.498V65H202.677V56.4688ZM221.432 70.6136C224.829 70.6136 227.562 69.0625 227.562 65.4062V50.8182H225.457V53.071H225.236C224.756 52.3324 223.869 50.6335 221.099 50.6335C217.517 50.6335 215.042 53.4773 215.042 57.8352C215.042 62.267 217.628 64.7784 221.062 64.7784C223.832 64.7784 224.719 63.1534 225.199 62.3778H225.383V65.2585C225.383 67.6222 223.721 68.6932 221.432 68.6932C218.856 68.6932 217.951 67.3359 217.369 66.5511L215.633 67.7699C216.52 69.2564 218.265 70.6136 221.432 70.6136ZM221.358 62.821C218.625 62.821 217.221 60.7528 217.221 57.7983C217.221 54.9176 218.588 52.5909 221.358 52.5909C224.017 52.5909 225.42 54.733 225.42 57.7983C225.42 60.9375 223.98 62.821 221.358 62.821ZM245.031 50.8182H242.003V47.4205H239.824V50.8182H237.682V52.6648H239.824V61.5284C239.824 64.0028 241.818 65.1847 243.665 65.1847C244.477 65.1847 244.994 65.0369 245.29 64.9261L244.846 62.9688C244.662 63.0057 244.366 63.0795 243.886 63.0795C242.926 63.0795 242.003 62.7841 242.003 60.9375V52.6648H245.031V50.8182ZM254.102 65.2955C256.983 65.2955 259.088 63.8551 259.753 61.7131L257.648 61.1222C257.094 62.5994 255.811 63.3381 254.102 63.3381C251.545 63.3381 249.781 61.6854 249.68 58.6477H259.975V57.7244C259.975 52.4432 256.835 50.6335 253.881 50.6335C250.04 50.6335 247.492 53.6619 247.492 58.0199C247.492 62.3778 250.003 65.2955 254.102 65.2955ZM249.68 56.7642C249.828 54.5575 251.388 52.5909 253.881 52.5909C256.244 52.5909 257.759 54.3636 257.759 56.7642H249.68ZM267.463 65.3324C269.937 65.3324 271.23 64.0028 271.673 63.0795H271.784V65H273.963V55.6562C273.963 51.1506 270.528 50.6335 268.718 50.6335C266.576 50.6335 264.139 51.3722 263.031 53.9574L265.099 54.696C265.579 53.6619 266.715 52.554 268.792 52.554C270.796 52.554 271.784 53.6158 271.784 55.4347V55.5085C271.784 56.5611 270.713 56.4688 268.127 56.8011C265.496 57.1428 262.624 57.7244 262.624 60.9744C262.624 63.7443 264.767 65.3324 267.463 65.3324ZM267.795 63.375C266.059 63.375 264.803 62.5994 264.803 61.0852C264.803 59.4233 266.318 58.9062 268.017 58.6847C268.94 58.5739 271.414 58.3153 271.784 57.8722V59.8665C271.784 61.6392 270.38 63.375 267.795 63.375ZM277.94 65H280.119V56.1364C280.119 54.0589 281.633 52.5909 283.332 52.5909C284.984 52.5909 286.138 53.6712 286.138 55.2869V65H288.354V55.767C288.354 53.9389 289.499 52.5909 291.494 52.5909C293.045 52.5909 294.374 53.4126 294.374 55.5085V65H296.553V55.5085C296.553 52.1754 294.762 50.6335 292.232 50.6335C290.201 50.6335 288.714 51.5661 287.985 53.0341H287.837C287.136 51.5199 285.898 50.6335 284.033 50.6335C282.187 50.6335 280.82 51.5199 280.229 53.0341H280.045V50.8182H277.94V65ZM8.16193 95.8182H5.13352V92.4205H2.95455V95.8182H0.8125V97.6648H2.95455V106.528C2.95455 109.003 4.94886 110.185 6.79546 110.185C7.60796 110.185 8.125 110.037 8.42046 109.926L7.97727 107.969C7.79261 108.006 7.49716 108.08 7.01705 108.08C6.05682 108.08 5.13352 107.784 5.13352 105.938V97.6648H8.16193V95.8182ZM17.0487 110.295C20.8896 110.295 23.4748 107.378 23.4748 102.983C23.4748 98.5511 20.8896 95.6335 17.0487 95.6335C13.2077 95.6335 10.6225 98.5511 10.6225 102.983C10.6225 107.378 13.2077 110.295 17.0487 110.295ZM17.0487 108.338C14.131 108.338 12.8015 105.827 12.8015 102.983C12.8015 100.139 14.131 97.5909 17.0487 97.5909C19.9663 97.5909 21.2958 100.139 21.2958 102.983C21.2958 105.827 19.9663 108.338 17.0487 108.338ZM39.4686 110.295C42.2015 110.295 43.1248 108.597 43.6049 107.821H43.8635V110H45.9686V91.0909H43.7896V98.071H43.6049C43.1248 97.3324 42.2754 95.6335 39.5055 95.6335C35.9231 95.6335 33.4487 98.4773 33.4487 102.946C33.4487 107.452 35.9231 110.295 39.4686 110.295ZM39.764 108.338C37.0311 108.338 35.6277 105.938 35.6277 102.909C35.6277 99.9176 36.9941 97.5909 39.764 97.5909C42.4231 97.5909 43.8265 99.733 43.8265 102.909C43.8265 106.122 42.3862 108.338 39.764 108.338ZM56.2079 110.295C59.0886 110.295 61.1937 108.855 61.8585 106.713L59.7534 106.122C59.1994 107.599 57.916 108.338 56.2079 108.338C53.6504 108.338 51.8869 106.685 51.7853 103.648H62.0801V102.724C62.0801 97.4432 58.9409 95.6335 55.9863 95.6335C52.1454 95.6335 49.5971 98.6619 49.5971 103.02C49.5971 107.378 52.1085 110.295 56.2079 110.295ZM51.7853 101.764C51.9331 99.5575 53.4934 97.5909 55.9863 97.5909C58.35 97.5909 59.8642 99.3636 59.8642 101.764H51.7853ZM76.5597 95.8182H74.196L70.2812 107.119H70.1335L66.2188 95.8182H63.8551L69.0994 110H71.3153L76.5597 95.8182ZM84.8739 110.295C87.7546 110.295 89.8597 108.855 90.5245 106.713L88.4194 106.122C87.8654 107.599 86.582 108.338 84.8739 108.338C82.3164 108.338 80.5529 106.685 80.4513 103.648H90.7461V102.724C90.7461 97.4432 87.6069 95.6335 84.6523 95.6335C80.8114 95.6335 78.2631 98.6619 78.2631 103.02C78.2631 107.378 80.7745 110.295 84.8739 110.295ZM80.4513 101.764C80.5991 99.5575 82.1594 97.5909 84.6523 97.5909C87.016 97.5909 88.5302 99.3636 88.5302 101.764H80.4513ZM96.2397 91.0909H94.0607V110H96.2397V91.0909ZM105.992 110.295C109.833 110.295 112.418 107.378 112.418 102.983C112.418 98.5511 109.833 95.6335 105.992 95.6335C102.151 95.6335 99.5659 98.5511 99.5659 102.983C99.5659 107.378 102.151 110.295 105.992 110.295ZM105.992 108.338C103.074 108.338 101.745 105.827 101.745 102.983C101.745 100.139 103.074 97.5909 105.992 97.5909C108.91 97.5909 110.239 100.139 110.239 102.983C110.239 105.827 108.91 108.338 105.992 108.338ZM115.744 115.318H117.923V107.821H118.108C118.588 108.597 119.511 110.295 122.244 110.295C125.79 110.295 128.264 107.452 128.264 102.946C128.264 98.4773 125.79 95.6335 122.207 95.6335C119.438 95.6335 118.588 97.3324 118.108 98.071H117.849V95.8182H115.744V115.318ZM117.886 102.909C117.886 99.733 119.29 97.5909 121.949 97.5909C124.719 97.5909 126.085 99.9176 126.085 102.909C126.085 105.938 124.682 108.338 121.949 108.338C119.327 108.338 117.886 106.122 117.886 102.909ZM144.662 110.295C147.801 110.295 149.869 108.375 150.239 105.864H148.06C147.653 107.415 146.361 108.338 144.662 108.338C142.077 108.338 140.415 106.196 140.415 102.909C140.415 99.696 142.114 97.5909 144.662 97.5909C146.582 97.5909 147.727 98.7727 148.06 100.065H150.239C149.869 97.4062 147.616 95.6335 144.625 95.6335C140.784 95.6335 138.236 98.6619 138.236 102.983C138.236 107.23 140.673 110.295 144.662 110.295ZM159.185 110.295C163.026 110.295 165.612 107.378 165.612 102.983C165.612 98.5511 163.026 95.6335 159.185 95.6335C155.344 95.6335 152.759 98.5511 152.759 102.983C152.759 107.378 155.344 110.295 159.185 110.295ZM159.185 108.338C156.268 108.338 154.938 105.827 154.938 102.983C154.938 100.139 156.268 97.5909 159.185 97.5909C162.103 97.5909 163.433 100.139 163.433 102.983C163.433 105.827 162.103 108.338 159.185 108.338ZM171.117 101.469C171.117 98.9943 172.649 97.5909 174.736 97.5909C176.758 97.5909 177.986 98.9112 177.986 101.136V110H180.165V100.989C180.165 97.3693 178.235 95.6335 175.364 95.6335C173.222 95.6335 171.892 96.5938 171.227 98.0341H171.043V95.8182H168.938V110H171.117V101.469ZM189.908 110.295C193.047 110.295 195.115 108.375 195.485 105.864H193.306C192.9 107.415 191.607 108.338 189.908 108.338C187.323 108.338 185.661 106.196 185.661 102.909C185.661 99.696 187.36 97.5909 189.908 97.5909C191.828 97.5909 192.973 98.7727 193.306 100.065H195.485C195.115 97.4062 192.863 95.6335 189.871 95.6335C186.03 95.6335 183.482 98.6619 183.482 102.983C183.482 107.23 185.919 110.295 189.908 110.295ZM204.616 110.295C207.497 110.295 209.602 108.855 210.267 106.713L208.162 106.122C207.608 107.599 206.324 108.338 204.616 108.338C202.059 108.338 200.295 106.685 200.194 103.648H210.488V102.724C210.488 97.4432 207.349 95.6335 204.395 95.6335C200.554 95.6335 198.005 98.6619 198.005 103.02C198.005 107.378 200.517 110.295 204.616 110.295ZM200.194 101.764C200.341 99.5575 201.902 97.5909 204.395 97.5909C206.758 97.5909 208.272 99.3636 208.272 101.764H200.194ZM213.803 115.318H215.982V107.821H216.167C216.647 108.597 217.57 110.295 220.303 110.295C223.848 110.295 226.323 107.452 226.323 102.946C226.323 98.4773 223.848 95.6335 220.266 95.6335C217.496 95.6335 216.647 97.3324 216.167 98.071H215.908V95.8182H213.803V115.318ZM215.945 102.909C215.945 99.733 217.348 97.5909 220.007 97.5909C222.777 97.5909 224.144 99.9176 224.144 102.909C224.144 105.938 222.74 108.338 220.007 108.338C217.385 108.338 215.945 106.122 215.945 102.909ZM235.814 95.8182H232.786V92.4205H230.607V95.8182H228.465V97.6648H230.607V106.528C230.607 109.003 232.601 110.185 234.448 110.185C235.26 110.185 235.777 110.037 236.073 109.926L235.63 107.969C235.445 108.006 235.15 108.08 234.669 108.08C233.709 108.08 232.786 107.784 232.786 105.938V97.6648H235.814V95.8182ZM248.884 98.9943C248.2 96.9815 246.668 95.6335 243.861 95.6335C240.869 95.6335 238.653 97.3324 238.653 99.733C238.653 101.69 239.817 103.001 242.42 103.611L244.784 104.165C246.215 104.497 246.889 105.18 246.889 106.159C246.889 107.378 245.597 108.375 243.565 108.375C241.783 108.375 240.666 107.609 240.278 106.085L238.21 106.602C238.718 109.012 240.703 110.295 243.602 110.295C246.898 110.295 249.142 108.495 249.142 106.048C249.142 104.072 247.905 102.826 245.375 102.207L243.27 101.69C241.589 101.275 240.832 100.712 240.832 99.6222C240.832 98.4034 242.125 97.517 243.861 97.517C245.763 97.517 246.548 98.5696 246.926 99.5483L248.884 98.9943ZM6.16761 155.332C8.64205 155.332 9.93466 154.003 10.3778 153.08H10.4886V155H12.6676V145.656C12.6676 141.151 9.23296 140.634 7.4233 140.634C5.28125 140.634 2.84375 141.372 1.7358 143.957L3.80398 144.696C4.28409 143.662 5.41974 142.554 7.49716 142.554C9.50071 142.554 10.4886 143.616 10.4886 145.435V145.509C10.4886 146.561 9.41761 146.469 6.83239 146.801C4.20099 147.143 1.32955 147.724 1.32955 150.974C1.32955 153.744 3.47159 155.332 6.16761 155.332ZM6.5 153.375C4.7642 153.375 3.50852 152.599 3.50852 151.085C3.50852 149.423 5.02273 148.906 6.72159 148.685C7.64489 148.574 10.1193 148.315 10.4886 147.872V149.866C10.4886 151.639 9.08523 153.375 6.5 153.375ZM18.8237 146.469C18.8237 143.994 20.3564 142.591 22.443 142.591C24.465 142.591 25.693 143.911 25.693 146.136V155H27.872V145.989C27.872 142.369 25.9423 140.634 23.0708 140.634C20.9288 140.634 19.5993 141.594 18.9345 143.034H18.7498V140.818H16.6447V155H18.8237V146.469ZM37.2088 155.295C39.9418 155.295 40.8651 153.597 41.3452 152.821H41.6037V155H43.7088V136.091H41.5298V143.071H41.3452C40.8651 142.332 40.0156 140.634 37.2457 140.634C33.6634 140.634 31.1889 143.477 31.1889 147.946C31.1889 152.452 33.6634 155.295 37.2088 155.295ZM37.5043 153.338C34.7713 153.338 33.3679 150.938 33.3679 147.909C33.3679 144.918 34.7344 142.591 37.5043 142.591C40.1634 142.591 41.5668 144.733 41.5668 147.909C41.5668 151.122 40.1264 153.338 37.5043 153.338ZM55.3146 155H57.4936V146.136C57.4936 144.059 59.0078 142.591 60.7067 142.591C62.3594 142.591 63.5135 143.671 63.5135 145.287V155H65.7294V145.767C65.7294 143.939 66.8743 142.591 68.8686 142.591C70.4197 142.591 71.7493 143.413 71.7493 145.509V155H73.9283V145.509C73.9283 142.175 72.1371 140.634 69.6072 140.634C67.576 140.634 66.0895 141.566 65.3601 143.034H65.2124C64.5107 141.52 63.2734 140.634 61.4084 140.634C59.5618 140.634 58.1953 141.52 57.6044 143.034H57.4197V140.818H55.3146V155ZM83.6737 155.295C87.5146 155.295 90.0998 152.378 90.0998 147.983C90.0998 143.551 87.5146 140.634 83.6737 140.634C79.8327 140.634 77.2475 143.551 77.2475 147.983C77.2475 152.378 79.8327 155.295 83.6737 155.295ZM83.6737 153.338C80.756 153.338 79.4265 150.827 79.4265 147.983C79.4265 145.139 80.756 142.591 83.6737 142.591C86.5913 142.591 87.9208 145.139 87.9208 147.983C87.9208 150.827 86.5913 153.338 83.6737 153.338ZM99.1873 155.295C102.327 155.295 104.395 153.375 104.764 150.864H102.585C102.179 152.415 100.886 153.338 99.1873 153.338C96.6021 153.338 94.9402 151.196 94.9402 147.909C94.9402 144.696 96.639 142.591 99.1873 142.591C101.108 142.591 102.253 143.773 102.585 145.065H104.764C104.395 142.406 102.142 140.634 99.1504 140.634C95.3095 140.634 92.7612 143.662 92.7612 147.983C92.7612 152.23 95.1987 155.295 99.1873 155.295ZM107.949 155H110.128V149.691L111.652 148.278L116.961 155H119.731L113.295 146.875L119.287 140.818H116.591L110.387 147.134H110.128V136.091H107.949V155ZM131.029 149.202C131.029 151.861 128.998 153.08 127.373 153.08C125.564 153.08 124.271 151.75 124.271 149.682V140.818H122.092V149.83C122.092 153.449 124.012 155.185 126.672 155.185C128.814 155.185 130.217 154.04 130.882 152.599H131.029V155H133.208V140.818H131.029V149.202ZM137.199 160.318H139.378V152.821H139.563C140.043 153.597 140.966 155.295 143.699 155.295C147.245 155.295 149.719 152.452 149.719 147.946C149.719 143.477 147.245 140.634 143.662 140.634C140.893 140.634 140.043 142.332 139.563 143.071H139.305V140.818H137.199V160.318ZM139.341 147.909C139.341 144.733 140.745 142.591 143.404 142.591C146.174 142.591 147.54 144.918 147.54 147.909C147.54 150.938 146.137 153.338 143.404 153.338C140.782 153.338 139.341 151.122 139.341 147.909ZM163.089 143.994C162.405 141.982 160.873 140.634 158.066 140.634C155.074 140.634 152.858 142.332 152.858 144.733C152.858 146.69 154.022 148.001 156.626 148.611L158.989 149.165C160.42 149.497 161.094 150.18 161.094 151.159C161.094 152.378 159.802 153.375 157.77 153.375C155.988 153.375 154.871 152.609 154.483 151.085L152.415 151.602C152.923 154.012 154.908 155.295 157.807 155.295C161.104 155.295 163.347 153.495 163.347 151.048C163.347 149.072 162.11 147.826 159.58 147.207L157.475 146.69C155.795 146.275 155.037 145.712 155.037 144.622C155.037 143.403 156.33 142.517 158.066 142.517C159.968 142.517 160.753 143.57 161.131 144.548L163.089 143.994ZM179.701 155.295C183.542 155.295 186.127 152.378 186.127 147.983C186.127 143.551 183.542 140.634 179.701 140.634C175.86 140.634 173.275 143.551 173.275 147.983C173.275 152.378 175.86 155.295 179.701 155.295ZM179.701 153.338C176.783 153.338 175.454 150.827 175.454 147.983C175.454 145.139 176.783 142.591 179.701 142.591C182.619 142.591 183.948 145.139 183.948 147.983C183.948 150.827 182.619 153.338 179.701 153.338ZM191.632 146.469C191.632 143.994 193.165 142.591 195.252 142.591C197.274 142.591 198.502 143.911 198.502 146.136V155H200.681V145.989C200.681 142.369 198.751 140.634 195.879 140.634C193.737 140.634 192.408 141.594 191.743 143.034H191.558V140.818H189.453V155H191.632V146.469ZM217.847 155.259C221.448 155.259 224.088 152.599 224.088 148.98C224.088 145.315 221.54 142.628 218.069 142.628C216.794 142.628 215.557 143.08 214.782 143.699H214.671L215.336 138.122H223.239V136.091H213.415L212.27 145.398L214.412 145.656C215.197 145.093 216.536 144.687 217.699 144.696C220.109 144.714 221.873 146.543 221.873 149.017C221.873 151.445 220.174 153.227 217.847 153.227C215.908 153.227 214.366 151.981 214.191 150.273H211.975C212.113 153.153 214.597 155.259 217.847 155.259ZM233.924 155.259C238.097 155.259 240.498 151.722 240.498 145.545C240.498 139.415 238.06 135.832 233.924 135.832C229.787 135.832 227.35 139.415 227.35 145.545C227.35 151.722 229.751 155.259 233.924 155.259ZM233.924 153.227C231.172 153.227 229.566 150.467 229.566 145.545C229.566 140.634 231.191 137.827 233.924 137.827C236.657 137.827 238.282 140.634 238.282 145.545C238.282 150.467 236.675 153.227 233.924 153.227ZM249.583 151.676H251.651V146.616H256.711V144.548H251.651V139.489H249.583V144.548H244.523V146.616H249.583V151.676ZM1.99432 205.318H4.1733V197.821H4.35795C4.83807 198.597 5.76136 200.295 8.49432 200.295C12.0398 200.295 14.5142 197.452 14.5142 192.946C14.5142 188.477 12.0398 185.634 8.45739 185.634C5.6875 185.634 4.83807 187.332 4.35795 188.071H4.09943V185.818H1.99432V205.318ZM4.13636 192.909C4.13636 189.733 5.53977 187.591 8.19886 187.591C10.9688 187.591 12.3352 189.918 12.3352 192.909C12.3352 195.938 10.9318 198.338 8.19886 198.338C5.5767 198.338 4.13636 196.122 4.13636 192.909ZM17.8381 200H20.017V191.026C20.017 189.105 21.5312 187.702 23.5994 187.702C24.1811 187.702 24.7812 187.812 24.929 187.849V185.634C24.6797 185.615 24.1072 185.597 23.7841 185.597C22.0852 185.597 20.608 186.557 20.0909 187.96H19.9432V185.818H17.8381V200ZM32.8416 200.295C36.6825 200.295 39.2678 197.378 39.2678 192.983C39.2678 188.551 36.6825 185.634 32.8416 185.634C29.0007 185.634 26.4155 188.551 26.4155 192.983C26.4155 197.378 29.0007 200.295 32.8416 200.295ZM32.8416 198.338C29.924 198.338 28.5945 195.827 28.5945 192.983C28.5945 190.139 29.924 187.591 32.8416 187.591C35.7592 187.591 37.0888 190.139 37.0888 192.983C37.0888 195.827 35.7592 198.338 32.8416 198.338ZM42.5939 185.818V201.034C42.5939 202.474 42.003 203.287 40.6735 203.287H40.2672V205.318H40.7104C43.4434 205.318 44.7729 203.656 44.7729 201.034V185.818H42.5939ZM43.665 183.455C44.5144 183.455 45.2161 182.79 45.2161 181.977C45.2161 181.165 44.5144 180.5 43.665 180.5C42.8155 180.5 42.1138 181.165 42.1138 181.977C42.1138 182.79 42.8155 183.455 43.665 183.455ZM54.7099 200.295C57.5906 200.295 59.6957 198.855 60.3604 196.713L58.2553 196.122C57.7013 197.599 56.418 198.338 54.7099 198.338C52.1523 198.338 50.3888 196.685 50.2873 193.648H60.582V192.724C60.582 187.443 57.4428 185.634 54.4883 185.634C50.6474 185.634 48.0991 188.662 48.0991 193.02C48.0991 197.378 50.6104 200.295 54.7099 200.295ZM50.2873 191.764C50.435 189.558 51.9954 187.591 54.4883 187.591C56.8519 187.591 58.3661 189.364 58.3661 191.764H50.2873ZM69.658 200.295C72.7972 200.295 74.8654 198.375 75.2347 195.864H73.0558C72.6495 197.415 71.3569 198.338 69.658 198.338C67.0728 198.338 65.4109 196.196 65.4109 192.909C65.4109 189.696 67.1097 187.591 69.658 187.591C71.5785 187.591 72.7234 188.773 73.0558 190.065H75.2347C74.8654 187.406 72.6126 185.634 69.6211 185.634C65.7802 185.634 63.2319 188.662 63.2319 192.983C63.2319 197.23 65.6694 200.295 69.658 200.295ZM84.5877 185.818H81.5593V182.42H79.3803V185.818H77.2383V187.665H79.3803V196.528C79.3803 199.003 81.3746 200.185 83.2212 200.185C84.0337 200.185 84.5508 200.037 84.8462 199.926L84.4031 197.969C84.2184 198.006 83.9229 198.08 83.4428 198.08C82.4826 198.08 81.5593 197.784 81.5593 195.938V187.665H84.5877V185.818ZM97.657 188.994C96.9737 186.982 95.4411 185.634 92.6342 185.634C89.6428 185.634 87.4268 187.332 87.4268 189.733C87.4268 191.69 88.5902 193.001 91.1939 193.611L93.5575 194.165C94.9886 194.497 95.6626 195.18 95.6626 196.159C95.6626 197.378 94.37 198.375 92.3388 198.375C90.5568 198.375 89.4396 197.609 89.0518 196.085L86.9837 196.602C87.4915 199.012 89.4766 200.295 92.3757 200.295C95.6719 200.295 97.9155 198.495 97.9155 196.048C97.9155 194.072 96.6783 192.826 94.1484 192.207L92.0433 191.69C90.3629 191.275 89.6058 190.712 89.6058 189.622C89.6058 188.403 90.8984 187.517 92.6342 187.517C94.5362 187.517 95.321 188.57 95.6996 189.548L97.657 188.994ZM102.784 200.148C103.698 200.148 104.445 199.4 104.445 198.486C104.445 197.572 103.698 196.824 102.784 196.824C101.869 196.824 101.122 197.572 101.122 198.486C101.122 199.4 101.869 200.148 102.784 200.148Z" fill="#FBFBFB"/>
</svg>
