<svg width="275" height="206" viewBox="0 0 275 206" fill="none" xmlns="http://www.w3.org/2000/svg">
<path d="M2.58239 20.1477C3.49645 20.1477 4.24432 19.3999 4.24432 18.4858C4.24432 17.5717 3.49645 16.8239 2.58239 16.8239C1.66832 16.8239 0.920455 17.5717 0.920455 18.4858C0.920455 19.3999 1.66832 20.1477 2.58239 20.1477ZM19.1971 20H21.5607L25.734 4.93182H25.8817L30.055 20H32.4187L37.5891 1.09091H35.2624L31.3107 16.4915H31.1261L27.1005 1.09091H24.5153L20.4897 16.4915H20.305L16.3533 1.09091H14.0266L19.1971 20ZM44.7724 20.2955C47.6531 20.2955 49.7582 18.8551 50.4229 16.7131L48.3178 16.1222C47.7638 17.5994 46.4805 18.3381 44.7724 18.3381C42.2148 18.3381 40.4513 16.6854 40.3498 13.6477H50.6445V12.7244C50.6445 7.44318 47.5053 5.63352 44.5508 5.63352C40.7099 5.63352 38.1616 8.66193 38.1616 13.0199C38.1616 17.3778 40.6729 20.2955 44.7724 20.2955ZM40.3498 11.7642C40.4975 9.55753 42.0579 7.59091 44.5508 7.59091C46.9144 7.59091 48.4286 9.36364 48.4286 11.7642H40.3498ZM54.2546 20H56.3597V17.821H56.6183C57.0984 18.5966 58.0217 20.2955 60.7546 20.2955C64.3001 20.2955 66.7745 17.4517 66.7745 12.946C66.7745 8.47727 64.3001 5.63352 60.7177 5.63352C57.9478 5.63352 57.0984 7.33239 56.6183 8.07102H56.4336V1.09091H54.2546V20ZM56.3967 12.9091C56.3967 9.73295 57.8001 7.59091 60.4592 7.59091C63.229 7.59091 64.5955 9.91761 64.5955 12.9091C64.5955 15.9375 63.1921 18.3381 60.4592 18.3381C57.837 18.3381 56.3967 16.1222 56.3967 12.9091ZM83.5508 20C89.3121 20 92.5621 16.4176 92.5621 10.5085C92.5621 4.63636 89.3121 1.09091 83.8093 1.09091H77.7156V20H83.5508ZM80.0053 17.9688V3.12216H83.6616C88.0934 3.12216 90.3462 5.92898 90.3462 10.5085C90.3462 15.125 88.0934 17.9688 83.4031 17.9688H80.0053ZM102.054 20.2955C104.934 20.2955 107.039 18.8551 107.704 16.7131L105.599 16.1222C105.045 17.5994 103.762 18.3381 102.054 18.3381C99.4961 18.3381 97.7326 16.6854 97.631 13.6477H107.926V12.7244C107.926 7.44318 104.787 5.63352 101.832 5.63352C97.9911 5.63352 95.4428 8.66193 95.4428 13.0199C95.4428 17.3778 97.9542 20.2955 102.054 20.2955ZM97.631 11.7642C97.7788 9.55753 99.3391 7.59091 101.832 7.59091C104.196 7.59091 105.71 9.36364 105.71 11.7642H97.631ZM121.286 8.99432C120.603 6.98153 119.07 5.63352 116.263 5.63352C113.272 5.63352 111.056 7.33239 111.056 9.73295C111.056 11.6903 112.219 13.0014 114.823 13.6108L117.186 14.1648C118.618 14.4972 119.292 15.1804 119.292 16.1591C119.292 17.3778 117.999 18.375 115.968 18.375C114.186 18.375 113.069 17.6087 112.681 16.0852L110.613 16.6023C111.12 19.0121 113.105 20.2955 116.005 20.2955C119.301 20.2955 121.544 18.495 121.544 16.0483C121.544 14.0724 120.307 12.826 117.777 12.2074L115.672 11.6903C113.992 11.2749 113.235 10.7116 113.235 9.62216C113.235 8.40341 114.527 7.51704 116.263 7.51704C118.165 7.51704 118.95 8.5696 119.328 9.54829L121.286 8.99432ZM124.824 20H127.003V5.81818H124.824V20ZM125.932 3.45455C126.782 3.45455 127.483 2.78977 127.483 1.97727C127.483 1.16477 126.782 0.5 125.932 0.5C125.083 0.5 124.381 1.16477 124.381 1.97727C124.381 2.78977 125.083 3.45455 125.932 3.45455ZM136.719 25.6136C140.116 25.6136 142.849 24.0625 142.849 20.4062V5.81818H140.744V8.07102H140.523C140.043 7.33239 139.156 5.63352 136.386 5.63352C132.804 5.63352 130.33 8.47727 130.33 12.8352C130.33 17.267 132.915 19.7784 136.349 19.7784C139.119 19.7784 140.006 18.1534 140.486 17.3778H140.67V20.2585C140.67 22.6222 139.009 23.6932 136.719 23.6932C134.143 23.6932 133.238 22.3359 132.656 21.5511L130.92 22.7699C131.807 24.2564 133.552 25.6136 136.719 25.6136ZM136.645 17.821C133.912 17.821 132.509 15.7528 132.509 12.7983C132.509 9.91761 133.875 7.59091 136.645 7.59091C139.304 7.59091 140.707 9.73295 140.707 12.7983C140.707 15.9375 139.267 17.821 136.645 17.821ZM149.017 11.4688C149.017 8.99432 150.55 7.59091 152.636 7.59091C154.658 7.59091 155.886 8.91122 155.886 11.1364V20H158.065V10.9886C158.065 7.36932 156.136 5.63352 153.264 5.63352C151.122 5.63352 149.793 6.59375 149.128 8.03409H148.943V5.81818H146.838V20H149.017V11.4688ZM162.047 20H164.226V5.81818H162.047V20ZM163.155 3.45455C164.004 3.45455 164.706 2.78977 164.706 1.97727C164.706 1.16477 164.004 0.5 163.155 0.5C162.306 0.5 161.604 1.16477 161.604 1.97727C161.604 2.78977 162.306 3.45455 163.155 3.45455ZM170.396 11.4688C170.396 8.99432 171.929 7.59091 174.015 7.59091C176.037 7.59091 177.265 8.91122 177.265 11.1364V20H179.444V10.9886C179.444 7.36932 177.515 5.63352 174.643 5.63352C172.501 5.63352 171.172 6.59375 170.507 8.03409H170.322V5.81818H168.217V20H170.396V11.4688ZM189.15 25.6136C192.548 25.6136 195.281 24.0625 195.281 20.4062V5.81818H193.176V8.07102H192.954C192.474 7.33239 191.588 5.63352 188.818 5.63352C185.236 5.63352 182.761 8.47727 182.761 12.8352C182.761 17.267 185.346 19.7784 188.781 19.7784C191.551 19.7784 192.437 18.1534 192.917 17.3778H193.102V20.2585C193.102 22.6222 191.44 23.6932 189.15 23.6932C186.574 23.6932 185.67 22.3359 185.088 21.5511L183.352 22.7699C184.238 24.2564 185.983 25.6136 189.15 25.6136ZM189.077 17.821C186.344 17.821 184.94 15.7528 184.94 12.7983C184.94 9.91761 186.307 7.59091 189.077 7.59091C191.736 7.59091 193.139 9.73295 193.139 12.7983C193.139 15.9375 191.699 17.821 189.077 17.821ZM2.58239 65.1477C3.49645 65.1477 4.24432 64.3999 4.24432 63.4858C4.24432 62.5717 3.49645 61.8239 2.58239 61.8239C1.66832 61.8239 0.920455 62.5717 0.920455 63.4858C0.920455 64.3999 1.66832 65.1477 2.58239 65.1477ZM16.538 65L18.44 59.6449H26.0849L27.9869 65H30.3874L23.4442 46.0909H21.0806L14.1374 65H16.538ZM19.1602 57.6136L22.1886 49.0824H22.3363L25.3647 57.6136H19.1602ZM33.0373 70.3182H35.2163V62.821H35.4009C35.881 63.5966 36.8043 65.2955 39.5373 65.2955C43.0827 65.2955 45.5572 62.4517 45.5572 57.946C45.5572 53.4773 43.0827 50.6335 39.5004 50.6335C36.7305 50.6335 35.881 52.3324 35.4009 53.071H35.1424V50.8182H33.0373V70.3182ZM35.1793 57.9091C35.1793 54.733 36.5827 52.5909 39.2418 52.5909C42.0117 52.5909 43.3782 54.9176 43.3782 57.9091C43.3782 60.9375 41.9748 63.3381 39.2418 63.3381C36.6197 63.3381 35.1793 61.1222 35.1793 57.9091ZM48.881 70.3182H51.06V62.821H51.2447C51.7248 63.5966 52.6481 65.2955 55.381 65.2955C58.9265 65.2955 61.4009 62.4517 61.4009 57.946C61.4009 53.4773 58.9265 50.6335 55.3441 50.6335C52.5742 50.6335 51.7248 52.3324 51.2447 53.071H50.9862V50.8182H48.881V70.3182ZM51.0231 57.9091C51.0231 54.733 52.4265 52.5909 55.0856 52.5909C57.8555 52.5909 59.2219 54.9176 59.2219 57.9091C59.2219 60.9375 57.8185 63.3381 55.0856 63.3381C52.4634 63.3381 51.0231 61.1222 51.0231 57.9091ZM78.168 65C83.9293 65 87.1793 61.4176 87.1793 55.5085C87.1793 49.6364 83.9293 46.0909 78.4265 46.0909H72.3327V65H78.168ZM74.6225 62.9688V48.1222H78.2788C82.7106 48.1222 84.9634 50.929 84.9634 55.5085C84.9634 60.125 82.7106 62.9688 78.0202 62.9688H74.6225ZM96.6708 65.2955C99.5515 65.2955 101.657 63.8551 102.321 61.7131L100.216 61.1222C99.6623 62.5994 98.3789 63.3381 96.6708 63.3381C94.1133 63.3381 92.3498 61.6854 92.2482 58.6477H102.543V57.7244C102.543 52.4432 99.4038 50.6335 96.4492 50.6335C92.6083 50.6335 90.06 53.6619 90.06 58.0199C90.06 62.3778 92.5714 65.2955 96.6708 65.2955ZM92.2482 56.7642C92.396 54.5575 93.9563 52.5909 96.4492 52.5909C98.8129 52.5909 100.327 54.3636 100.327 56.7642H92.2482ZM115.903 53.9943C115.22 51.9815 113.687 50.6335 110.88 50.6335C107.889 50.6335 105.673 52.3324 105.673 54.733C105.673 56.6903 106.836 58.0014 109.44 58.6108L111.804 59.1648C113.235 59.4972 113.909 60.1804 113.909 61.1591C113.909 62.3778 112.616 63.375 110.585 63.375C108.803 63.375 107.686 62.6087 107.298 61.0852L105.23 61.6023C105.738 64.0121 107.723 65.2955 110.622 65.2955C113.918 65.2955 116.162 63.495 116.162 61.0483C116.162 59.0724 114.924 57.826 112.395 57.2074L110.289 56.6903C108.609 56.2749 107.852 55.7116 107.852 54.6222C107.852 53.4034 109.145 52.517 110.88 52.517C112.782 52.517 113.567 53.5696 113.946 54.5483L115.903 53.9943ZM119.442 65H121.621V50.8182H119.442V65ZM120.55 48.4545C121.399 48.4545 122.101 47.7898 122.101 46.9773C122.101 46.1648 121.399 45.5 120.55 45.5C119.7 45.5 118.998 46.1648 118.998 46.9773C118.998 47.7898 119.7 48.4545 120.55 48.4545ZM131.336 70.6136C134.734 70.6136 137.467 69.0625 137.467 65.4062V50.8182H135.362V53.071H135.14C134.66 52.3324 133.773 50.6335 131.004 50.6335C127.421 50.6335 124.947 53.4773 124.947 57.8352C124.947 62.267 127.532 64.7784 130.967 64.7784C133.737 64.7784 134.623 63.1534 135.103 62.3778H135.288V65.2585C135.288 67.6222 133.626 68.6932 131.336 68.6932C128.76 68.6932 127.855 67.3359 127.273 66.5511L125.538 67.7699C126.424 69.2564 128.169 70.6136 131.336 70.6136ZM131.262 62.821C128.529 62.821 127.126 60.7528 127.126 57.7983C127.126 54.9176 128.492 52.5909 131.262 52.5909C133.921 52.5909 135.325 54.733 135.325 57.7983C135.325 60.9375 133.884 62.821 131.262 62.821ZM143.634 56.4688C143.634 53.9943 145.167 52.5909 147.254 52.5909C149.276 52.5909 150.504 53.9112 150.504 56.1364V65H152.683V55.9886C152.683 52.3693 150.753 50.6335 147.881 50.6335C145.739 50.6335 144.41 51.5938 143.745 53.0341H143.56V50.8182H141.455V65H143.634V56.4688ZM156.664 65H158.843V50.8182H156.664V65ZM157.772 48.4545C158.622 48.4545 159.323 47.7898 159.323 46.9773C159.323 46.1648 158.622 45.5 157.772 45.5C156.923 45.5 156.221 46.1648 156.221 46.9773C156.221 47.7898 156.923 48.4545 157.772 48.4545ZM165.013 56.4688C165.013 53.9943 166.546 52.5909 168.632 52.5909C170.654 52.5909 171.882 53.9112 171.882 56.1364V65H174.061V55.9886C174.061 52.3693 172.132 50.6335 169.26 50.6335C167.118 50.6335 165.789 51.5938 165.124 53.0341H164.939V50.8182H162.834V65H165.013V56.4688ZM183.768 70.6136C187.165 70.6136 189.898 69.0625 189.898 65.4062V50.8182H187.793V53.071H187.572C187.091 52.3324 186.205 50.6335 183.435 50.6335C179.853 50.6335 177.378 53.4773 177.378 57.8352C177.378 62.267 179.964 64.7784 183.398 64.7784C186.168 64.7784 187.055 63.1534 187.535 62.3778H187.719V65.2585C187.719 67.6222 186.057 68.6932 183.768 68.6932C181.192 68.6932 180.287 67.3359 179.705 66.5511L177.969 67.7699C178.856 69.2564 180.601 70.6136 183.768 70.6136ZM183.694 62.821C180.961 62.821 179.557 60.7528 179.557 57.7983C179.557 54.9176 180.924 52.5909 183.694 52.5909C186.353 52.5909 187.756 54.733 187.756 57.7983C187.756 60.9375 186.316 62.821 183.694 62.821ZM2.58239 110.148C3.49645 110.148 4.24432 109.4 4.24432 108.486C4.24432 107.572 3.49645 106.824 2.58239 106.824C1.66832 106.824 0.920455 107.572 0.920455 108.486C0.920455 109.4 1.66832 110.148 2.58239 110.148ZM21.5977 110C27.359 110 30.609 106.418 30.609 100.509C30.609 94.6364 27.359 91.0909 21.8562 91.0909H15.7624V110H21.5977ZM18.0522 107.969V93.1222H21.7085C26.1403 93.1222 28.3931 95.929 28.3931 100.509C28.3931 105.125 26.1403 107.969 21.4499 107.969H18.0522ZM38.3278 110.332C40.8022 110.332 42.0948 109.003 42.538 108.08H42.6488V110H44.8278V100.656C44.8278 96.1506 41.3931 95.6335 39.5835 95.6335C37.4414 95.6335 35.0039 96.3722 33.896 98.9574L35.9641 99.696C36.4442 98.6619 37.5799 97.554 39.6573 97.554C41.6609 97.554 42.6488 98.6158 42.6488 100.435V100.509C42.6488 101.561 41.5778 101.469 38.9925 101.801C36.3612 102.143 33.4897 102.724 33.4897 105.974C33.4897 108.744 35.6317 110.332 38.3278 110.332ZM38.6602 108.375C36.9244 108.375 35.6687 107.599 35.6687 106.085C35.6687 104.423 37.1829 103.906 38.8817 103.685C39.805 103.574 42.2795 103.315 42.6488 102.872V104.866C42.6488 106.639 41.2454 108.375 38.6602 108.375ZM58.8503 98.9943C58.1671 96.9815 56.6344 95.6335 53.8276 95.6335C50.8361 95.6335 48.6202 97.3324 48.6202 99.733C48.6202 101.69 49.7836 103.001 52.3873 103.611L54.7509 104.165C56.182 104.497 56.856 105.18 56.856 106.159C56.856 107.378 55.5634 108.375 53.5321 108.375C51.7502 108.375 50.633 107.609 50.2452 106.085L48.177 106.602C48.6848 109.012 50.6699 110.295 53.5691 110.295C56.8652 110.295 59.1088 108.495 59.1088 106.048C59.1088 104.072 57.8716 102.826 55.3418 102.207L53.2367 101.69C51.5563 101.275 50.7992 100.712 50.7992 99.6222C50.7992 98.4034 52.0918 97.517 53.8276 97.517C55.7296 97.517 56.5144 98.5696 56.8929 99.5483L58.8503 98.9943ZM64.5678 101.469C64.5678 98.9943 66.1467 97.5909 68.2979 97.5909C70.3477 97.5909 71.5849 98.8835 71.5849 101.136V110H73.7638V100.989C73.7638 97.3416 71.8249 95.6335 68.9258 95.6335C66.6914 95.6335 65.4173 96.5661 64.7525 98.0341H64.5678V91.0909H62.3888V110H64.5678V101.469ZM78.0456 110H80.1507V107.821H80.4093C80.8894 108.597 81.8127 110.295 84.5456 110.295C88.0911 110.295 90.5655 107.452 90.5655 102.946C90.5655 98.4773 88.0911 95.6335 84.5087 95.6335C81.7388 95.6335 80.8894 97.3324 80.4093 98.071H80.2246V91.0909H78.0456V110ZM80.1877 102.909C80.1877 99.733 81.5911 97.5909 84.2502 97.5909C87.0201 97.5909 88.3865 99.9176 88.3865 102.909C88.3865 105.938 86.9831 108.338 84.2502 108.338C81.628 108.338 80.1877 106.122 80.1877 102.909ZM99.66 110.295C103.501 110.295 106.086 107.378 106.086 102.983C106.086 98.5511 103.501 95.6335 99.66 95.6335C95.8191 95.6335 93.2338 98.5511 93.2338 102.983C93.2338 107.378 95.8191 110.295 99.66 110.295ZM99.66 108.338C96.7424 108.338 95.4128 105.827 95.4128 102.983C95.4128 100.139 96.7424 97.5909 99.66 97.5909C102.578 97.5909 103.907 100.139 103.907 102.983C103.907 105.827 102.578 108.338 99.66 108.338ZM113.586 110.332C116.06 110.332 117.353 109.003 117.796 108.08H117.907V110H120.086V100.656C120.086 96.1506 116.651 95.6335 114.841 95.6335C112.699 95.6335 110.262 96.3722 109.154 98.9574L111.222 99.696C111.702 98.6619 112.838 97.554 114.915 97.554C116.919 97.554 117.907 98.6158 117.907 100.435V100.509C117.907 101.561 116.836 101.469 114.25 101.801C111.619 102.143 108.748 102.724 108.748 105.974C108.748 108.744 110.89 110.332 113.586 110.332ZM113.918 108.375C112.182 108.375 110.926 107.599 110.926 106.085C110.926 104.423 112.441 103.906 114.14 103.685C115.063 103.574 117.537 103.315 117.907 102.872V104.866C117.907 106.639 116.503 108.375 113.918 108.375ZM124.063 110H126.242V101.026C126.242 99.1051 127.756 97.7017 129.824 97.7017C130.406 97.7017 131.006 97.8125 131.154 97.8494V95.6335C130.904 95.6151 130.332 95.5966 130.009 95.5966C128.31 95.5966 126.833 96.5568 126.316 97.9602H126.168V95.8182H124.063V110ZM138.66 110.295C141.393 110.295 142.316 108.597 142.796 107.821H143.055V110H145.16V91.0909H142.981V98.071H142.796C142.316 97.3324 141.467 95.6335 138.697 95.6335C135.115 95.6335 132.64 98.4773 132.64 102.946C132.64 107.452 135.115 110.295 138.66 110.295ZM138.955 108.338C136.222 108.338 134.819 105.938 134.819 102.909C134.819 99.9176 136.186 97.5909 138.955 97.5909C141.615 97.5909 143.018 99.733 143.018 102.909C143.018 106.122 141.578 108.338 138.955 108.338ZM162.896 110C168.658 110 171.908 106.418 171.908 100.509C171.908 94.6364 168.658 91.0909 163.155 91.0909H157.061V110H162.896ZM159.351 107.969V93.1222H163.007C167.439 93.1222 169.692 95.929 169.692 100.509C169.692 105.125 167.439 107.969 162.749 107.969H159.351ZM181.399 110.295C184.28 110.295 186.385 108.855 187.05 106.713L184.945 106.122C184.391 107.599 183.107 108.338 181.399 108.338C178.842 108.338 177.078 106.685 176.977 103.648H187.271V102.724C187.271 97.4432 184.132 95.6335 181.178 95.6335C177.337 95.6335 174.789 98.6619 174.789 103.02C174.789 107.378 177.3 110.295 181.399 110.295ZM176.977 101.764C177.124 99.5575 178.685 97.5909 181.178 97.5909C183.541 97.5909 185.056 99.3636 185.056 101.764H176.977ZM200.632 98.9943C199.948 96.9815 198.416 95.6335 195.609 95.6335C192.617 95.6335 190.401 97.3324 190.401 99.733C190.401 101.69 191.565 103.001 194.169 103.611L196.532 104.165C197.963 104.497 198.637 105.18 198.637 106.159C198.637 107.378 197.345 108.375 195.313 108.375C193.531 108.375 192.414 107.609 192.026 106.085L189.958 106.602C190.466 109.012 192.451 110.295 195.35 110.295C198.646 110.295 200.89 108.495 200.89 106.048C200.89 104.072 199.653 102.826 197.123 102.207L195.018 101.69C193.338 101.275 192.58 100.712 192.58 99.6222C192.58 98.4034 193.873 97.517 195.609 97.517C197.511 97.517 198.296 98.5696 198.674 99.5483L200.632 98.9943ZM204.17 110H206.349V95.8182H204.17V110ZM205.278 93.4545C206.127 93.4545 206.829 92.7898 206.829 91.9773C206.829 91.1648 206.127 90.5 205.278 90.5C204.429 90.5 203.727 91.1648 203.727 91.9773C203.727 92.7898 204.429 93.4545 205.278 93.4545ZM216.064 115.614C219.462 115.614 222.195 114.062 222.195 110.406V95.8182H220.09V98.071H219.868C219.388 97.3324 218.502 95.6335 215.732 95.6335C212.15 95.6335 209.675 98.4773 209.675 102.835C209.675 107.267 212.26 109.778 215.695 109.778C218.465 109.778 219.351 108.153 219.831 107.378H220.016V110.259C220.016 112.622 218.354 113.693 216.064 113.693C213.488 113.693 212.584 112.336 212.002 111.551L210.266 112.77C211.153 114.256 212.898 115.614 216.064 115.614ZM215.991 107.821C213.258 107.821 211.854 105.753 211.854 102.798C211.854 99.9176 213.221 97.5909 215.991 97.5909C218.65 97.5909 220.053 99.733 220.053 102.798C220.053 105.938 218.613 107.821 215.991 107.821ZM228.363 101.469C228.363 98.9943 229.895 97.5909 231.982 97.5909C234.004 97.5909 235.232 98.9112 235.232 101.136V110H237.411V100.989C237.411 97.3693 235.481 95.6335 232.61 95.6335C230.468 95.6335 229.138 96.5938 228.474 98.0341H228.289V95.8182H226.184V110H228.363V101.469ZM241.393 110H243.572V95.8182H241.393V110ZM242.501 93.4545C243.35 93.4545 244.052 92.7898 244.052 91.9773C244.052 91.1648 243.35 90.5 242.501 90.5C241.651 90.5 240.95 91.1648 240.95 91.9773C240.95 92.7898 241.651 93.4545 242.501 93.4545ZM249.742 101.469C249.742 98.9943 251.274 97.5909 253.361 97.5909C255.383 97.5909 256.611 98.9112 256.611 101.136V110H258.79V100.989C258.79 97.3693 256.86 95.6335 253.989 95.6335C251.847 95.6335 250.517 96.5938 249.852 98.0341H249.668V95.8182H247.563V110H249.742V101.469ZM268.496 115.614C271.894 115.614 274.627 114.062 274.627 110.406V95.8182H272.522V98.071H272.3C271.82 97.3324 270.934 95.6335 268.164 95.6335C264.581 95.6335 262.107 98.4773 262.107 102.835C262.107 107.267 264.692 109.778 268.127 109.778C270.897 109.778 271.783 108.153 272.263 107.378H272.448V110.259C272.448 112.622 270.786 113.693 268.496 113.693C265.92 113.693 265.015 112.336 264.434 111.551L262.698 112.77C263.584 114.256 265.329 115.614 268.496 115.614ZM268.422 107.821C265.689 107.821 264.286 105.753 264.286 102.798C264.286 99.9176 265.652 97.5909 268.422 97.5909C271.081 97.5909 272.485 99.733 272.485 102.798C272.485 105.938 271.044 107.821 268.422 107.821ZM2.58239 155.148C3.49645 155.148 4.24432 154.4 4.24432 153.486C4.24432 152.572 3.49645 151.824 2.58239 151.824C1.66832 151.824 0.920455 152.572 0.920455 153.486C0.920455 154.4 1.66832 155.148 2.58239 155.148ZM21.5977 155C27.359 155 30.609 151.418 30.609 145.509C30.609 139.636 27.359 136.091 21.8562 136.091H15.7624V155H21.5977ZM18.0522 152.969V138.122H21.7085C26.1403 138.122 28.3931 140.929 28.3931 145.509C28.3931 150.125 26.1403 152.969 21.4499 152.969H18.0522ZM40.1005 155.295C42.9812 155.295 45.0863 153.855 45.7511 151.713L43.646 151.122C43.092 152.599 41.8086 153.338 40.1005 153.338C37.543 153.338 35.7795 151.685 35.6779 148.648H45.9727V147.724C45.9727 142.443 42.8335 140.634 39.8789 140.634C36.038 140.634 33.4897 143.662 33.4897 148.02C33.4897 152.378 36.0011 155.295 40.1005 155.295ZM35.6779 146.764C35.8256 144.558 37.386 142.591 39.8789 142.591C42.2425 142.591 43.7567 144.364 43.7567 146.764H35.6779ZM60.4522 140.818H58.0886L54.1738 152.119H54.0261L50.1113 140.818H47.7477L52.992 155H55.2079L60.4522 140.818ZM68.7665 155.295C71.6472 155.295 73.7523 153.855 74.4171 151.713L72.312 151.122C71.758 152.599 70.4746 153.338 68.7665 153.338C66.209 153.338 64.4455 151.685 64.3439 148.648H74.6387V147.724C74.6387 142.443 71.4995 140.634 68.5449 140.634C64.704 140.634 62.1557 143.662 62.1557 148.02C62.1557 152.378 64.6671 155.295 68.7665 155.295ZM64.3439 146.764C64.4917 144.558 66.052 142.591 68.5449 142.591C70.9086 142.591 72.4228 144.364 72.4228 146.764H64.3439ZM80.1323 136.091H77.9533V155H80.1323V136.091ZM89.8846 155.295C93.7255 155.295 96.3107 152.378 96.3107 147.983C96.3107 143.551 93.7255 140.634 89.8846 140.634C86.0437 140.634 83.4585 143.551 83.4585 147.983C83.4585 152.378 86.0437 155.295 89.8846 155.295ZM89.8846 153.338C86.967 153.338 85.6374 150.827 85.6374 147.983C85.6374 145.139 86.967 142.591 89.8846 142.591C92.8022 142.591 94.1317 145.139 94.1317 147.983C94.1317 150.827 92.8022 153.338 89.8846 153.338ZM99.6369 160.318H101.816V152.821H102.001C102.481 153.597 103.404 155.295 106.137 155.295C109.682 155.295 112.157 152.452 112.157 147.946C112.157 143.477 109.682 140.634 106.1 140.634C103.33 140.634 102.481 142.332 102.001 143.071H101.742V140.818H99.6369V160.318ZM101.779 147.909C101.779 144.733 103.182 142.591 105.841 142.591C108.611 142.591 109.978 144.918 109.978 147.909C109.978 150.938 108.574 153.338 105.841 153.338C103.219 153.338 101.779 151.122 101.779 147.909ZM115.481 155H117.66V146.136C117.66 144.059 119.174 142.591 120.873 142.591C122.525 142.591 123.68 143.671 123.68 145.287V155H125.895V145.767C125.895 143.939 127.04 142.591 129.035 142.591C130.586 142.591 131.915 143.413 131.915 145.509V155H134.094V145.509C134.094 142.175 132.303 140.634 129.773 140.634C127.742 140.634 126.256 141.566 125.526 143.034H125.378C124.677 141.52 123.439 140.634 121.574 140.634C119.728 140.634 118.361 141.52 117.77 143.034H117.586V140.818H115.481V155ZM144.024 155.295C146.905 155.295 149.01 153.855 149.675 151.713L147.57 151.122C147.016 152.599 145.732 153.338 144.024 153.338C141.467 153.338 139.703 151.685 139.602 148.648H149.896V147.724C149.896 142.443 146.757 140.634 143.803 140.634C139.962 140.634 137.414 143.662 137.414 148.02C137.414 152.378 139.925 155.295 144.024 155.295ZM139.602 146.764C139.749 144.558 141.31 142.591 143.803 142.591C146.166 142.591 147.681 144.364 147.681 146.764H139.602ZM155.39 146.469C155.39 143.994 156.923 142.591 159.009 142.591C161.031 142.591 162.259 143.911 162.259 146.136V155H164.438V145.989C164.438 142.369 162.509 140.634 159.637 140.634C157.495 140.634 156.166 141.594 155.501 143.034H155.316V140.818H153.211V155H155.39V146.469ZM174.588 140.818H171.559V137.42H169.38V140.818H167.238V142.665H169.38V151.528C169.38 154.003 171.375 155.185 173.221 155.185C174.034 155.185 174.551 155.037 174.846 154.926L174.403 152.969C174.218 153.006 173.923 153.08 173.443 153.08C172.483 153.08 171.559 152.784 171.559 150.938V142.665H174.588V140.818ZM2.58239 200.148C3.49645 200.148 4.24432 199.4 4.24432 198.486C4.24432 197.572 3.49645 196.824 2.58239 196.824C1.66832 196.824 0.920455 197.572 0.920455 198.486C0.920455 199.4 1.66832 200.148 2.58239 200.148ZM16.538 181.091H14.1374L21.0806 200H23.4442L30.3874 181.091H27.9869L22.3732 197.009H22.1516L16.538 181.091ZM33.0373 200H35.2163V185.818H33.0373V200ZM34.1452 183.455C34.9947 183.455 35.6964 182.79 35.6964 181.977C35.6964 181.165 34.9947 180.5 34.1452 180.5C33.2958 180.5 32.5941 181.165 32.5941 181.977C32.5941 182.79 33.2958 183.455 34.1452 183.455ZM44.5623 200.295C47.2953 200.295 48.2186 198.597 48.6987 197.821H48.9572V200H51.0623V181.091H48.8833V188.071H48.6987C48.2186 187.332 47.3691 185.634 44.5993 185.634C41.0169 185.634 38.5424 188.477 38.5424 192.946C38.5424 197.452 41.0169 200.295 44.5623 200.295ZM44.8578 198.338C42.1248 198.338 40.7214 195.938 40.7214 192.909C40.7214 189.918 42.0879 187.591 44.8578 187.591C47.5169 187.591 48.9203 189.733 48.9203 192.909C48.9203 196.122 47.4799 198.338 44.8578 198.338ZM61.3017 200.295C64.1824 200.295 66.2875 198.855 66.9522 196.713L64.8471 196.122C64.2931 197.599 63.0098 198.338 61.3017 198.338C58.7441 198.338 56.9806 196.685 56.8791 193.648H67.1738V192.724C67.1738 187.443 64.0346 185.634 61.0801 185.634C57.2392 185.634 54.6909 188.662 54.6909 193.02C54.6909 197.378 57.2022 200.295 61.3017 200.295ZM56.8791 191.764C57.0268 189.558 58.5872 187.591 61.0801 187.591C63.4437 187.591 64.9579 189.364 64.9579 191.764H56.8791ZM76.2498 200.295C80.0907 200.295 82.676 197.378 82.676 192.983C82.676 188.551 80.0907 185.634 76.2498 185.634C72.4089 185.634 69.8237 188.551 69.8237 192.983C69.8237 197.378 72.4089 200.295 76.2498 200.295ZM76.2498 198.338C73.3322 198.338 72.0027 195.827 72.0027 192.983C72.0027 190.139 73.3322 187.591 76.2498 187.591C79.1674 187.591 80.497 190.139 80.497 192.983C80.497 195.827 79.1674 198.338 76.2498 198.338ZM93.6101 200H105.17V197.969H95.8999V191.543H104.431V189.511H95.8999V183.122H105.022V181.091H93.6101V200ZM114.209 200.295C116.942 200.295 117.865 198.597 118.345 197.821H118.604V200H120.709V181.091H118.53V188.071H118.345C117.865 187.332 117.016 185.634 114.246 185.634C110.663 185.634 108.189 188.477 108.189 192.946C108.189 197.452 110.663 200.295 114.209 200.295ZM114.504 198.338C111.771 198.338 110.368 195.938 110.368 192.909C110.368 189.918 111.734 187.591 114.504 187.591C117.163 187.591 118.567 189.733 118.567 192.909C118.567 196.122 117.126 198.338 114.504 198.338ZM125.002 200H127.181V185.818H125.002V200ZM126.11 183.455C126.96 183.455 127.661 182.79 127.661 181.977C127.661 181.165 126.96 180.5 126.11 180.5C125.261 180.5 124.559 181.165 124.559 181.977C124.559 182.79 125.261 183.455 126.11 183.455ZM137.34 185.818H134.311V182.42H132.132V185.818H129.99V187.665H132.132V196.528C132.132 199.003 134.127 200.185 135.973 200.185C136.786 200.185 137.303 200.037 137.598 199.926L137.155 197.969C136.97 198.006 136.675 198.08 136.195 198.08C135.235 198.08 134.311 197.784 134.311 195.938V187.665H137.34V185.818ZM140.617 200H142.796V185.818H140.617V200ZM141.725 183.455C142.575 183.455 143.276 182.79 143.276 181.977C143.276 181.165 142.575 180.5 141.725 180.5C140.876 180.5 140.174 181.165 140.174 181.977C140.174 182.79 140.876 183.455 141.725 183.455ZM148.966 191.469C148.966 188.994 150.499 187.591 152.586 187.591C154.608 187.591 155.836 188.911 155.836 191.136V200H158.015V190.989C158.015 187.369 156.085 185.634 153.213 185.634C151.071 185.634 149.742 186.594 149.077 188.034H148.892V185.818H146.787V200H148.966V191.469ZM167.721 205.614C171.118 205.614 173.851 204.062 173.851 200.406V185.818H171.746V188.071H171.525C171.045 187.332 170.158 185.634 167.388 185.634C163.806 185.634 161.331 188.477 161.331 192.835C161.331 197.267 163.917 199.778 167.351 199.778C170.121 199.778 171.008 198.153 171.488 197.378H171.672V200.259C171.672 202.622 170.01 203.693 167.721 203.693C165.145 203.693 164.24 202.336 163.658 201.551L161.922 202.77C162.809 204.256 164.554 205.614 167.721 205.614ZM167.647 197.821C164.914 197.821 163.51 195.753 163.51 192.798C163.51 189.918 164.877 187.591 167.647 187.591C170.306 187.591 171.709 189.733 171.709 192.798C171.709 195.938 170.269 197.821 167.647 197.821Z" fill="#FBFBFB"/>
</svg>
