<svg width="274" height="200" viewBox="0 0 274 200" fill="none" xmlns="http://www.w3.org/2000/svg">
<path d="M2.58239 19.1477C3.49645 19.1477 4.24432 18.3999 4.24432 17.4858C4.24432 16.5717 3.49645 15.8239 2.58239 15.8239C1.66832 15.8239 0.920455 16.5717 0.920455 17.4858C0.920455 18.3999 1.66832 19.1477 2.58239 19.1477ZM8.44993 19H10.7397V10.5426H20.8221V19H23.1119V0.0909085H20.8221V8.51136H10.7397V0.0909085H8.44993V19ZM26.6619 2.12216H32.608V19H34.8977V2.12216H40.8438V0.0909085H26.6619V2.12216ZM44.3777 0.0909085V19H46.5197V4.63352H46.7044L52.6135 19H54.6816L60.5907 4.63352H60.7754V19H62.9174V0.0909085H60.1845L53.7583 15.7869H53.5368L47.1106 0.0909085H44.3777ZM67.5085 19H78.5881V16.9688H69.7983V0.0909085H67.5085V19ZM2.58239 64.1477C3.49645 64.1477 4.24432 63.3999 4.24432 62.4858C4.24432 61.5717 3.49645 60.8239 2.58239 60.8239C1.66832 60.8239 0.920455 61.5717 0.920455 62.4858C0.920455 63.3999 1.66832 64.1477 2.58239 64.1477ZM23.6658 51C22.9641 47.1222 19.8619 44.8324 16.0579 44.8324C11.2198 44.8324 7.71129 48.5625 7.71129 54.5455C7.71129 60.5284 11.2198 64.2585 16.0579 64.2585C19.8619 64.2585 22.9641 61.9688 23.6658 58.0909H21.3761C20.8221 60.7131 18.5692 62.1165 16.0579 62.1165C12.6232 62.1165 9.9272 59.4574 9.9272 54.5455C9.9272 49.6335 12.6232 46.9744 16.0579 46.9744C18.5692 46.9744 20.8221 48.3778 21.3761 51H23.6658ZM37.7069 49.8182H39.9228C39.8212 46.9652 37.1898 44.8324 33.5336 44.8324C29.9142 44.8324 27.0705 46.9375 27.0705 50.1136C27.0705 52.6619 28.9171 54.1761 31.8716 55.0256L34.1983 55.6903C36.1926 56.2443 37.9654 56.946 37.9654 58.8295C37.9654 60.8977 35.9711 62.2642 33.3489 62.2642C31.0961 62.2642 29.1017 61.267 28.9171 59.125H26.5534C26.775 62.2273 29.2864 64.3324 33.3489 64.3324C37.7069 64.3324 40.1813 61.9318 40.1813 58.8665C40.1813 55.321 36.8205 54.1761 34.8631 53.6591L32.9426 53.142C31.5392 52.7727 29.2864 52.0341 29.2864 50.0028C29.2864 48.1932 30.9483 46.8636 33.4597 46.8636C35.7495 46.8636 37.4853 47.9531 37.7069 49.8182ZM54.2869 49.8182H56.5028C56.4013 46.9652 53.7699 44.8324 50.1136 44.8324C46.4943 44.8324 43.6506 46.9375 43.6506 50.1136C43.6506 52.6619 45.4972 54.1761 48.4517 55.0256L50.7784 55.6903C52.7727 56.2443 54.5455 56.946 54.5455 58.8295C54.5455 60.8977 52.5511 62.2642 49.929 62.2642C47.6761 62.2642 45.6818 61.267 45.4972 59.125H43.1335C43.3551 62.2273 45.8665 64.3324 49.929 64.3324C54.2869 64.3324 56.7614 61.9318 56.7614 58.8665C56.7614 55.321 53.4006 54.1761 51.4432 53.6591L49.5227 53.142C48.1193 52.7727 45.8665 52.0341 45.8665 50.0028C45.8665 48.1932 47.5284 46.8636 50.0398 46.8636C52.3295 46.8636 54.0653 47.9531 54.2869 49.8182ZM2.58239 109.148C3.49645 109.148 4.24432 108.4 4.24432 107.486C4.24432 106.572 3.49645 105.824 2.58239 105.824C1.66832 105.824 0.920455 106.572 0.920455 107.486C0.920455 108.4 1.66832 109.148 2.58239 109.148ZM8.44993 109H20.0096V106.969H10.7397V100.543H19.271V98.5114H10.7397V92.1222H19.8619V90.0909H8.44993V109ZM25.8725 100.469C25.8725 97.9943 27.4052 96.5909 29.4918 96.5909C31.5138 96.5909 32.7418 97.9112 32.7418 100.136V109H34.9208V99.9886C34.9208 96.3693 32.9911 94.6335 30.1197 94.6335C27.9776 94.6335 26.6481 95.5938 25.9833 97.0341H25.7987V94.8182H23.6935V109H25.8725V100.469ZM45.0701 94.8182H42.0417V91.4205H39.8627V94.8182H37.7207V96.6648H39.8627V105.528C39.8627 108.003 41.8571 109.185 43.7037 109.185C44.5162 109.185 45.0332 109.037 45.3287 108.926L44.8855 106.969C44.7008 107.006 44.4054 107.08 43.9252 107.08C42.965 107.08 42.0417 106.784 42.0417 104.938V96.6648H45.0701V94.8182ZM54.1415 109.295C57.0222 109.295 59.1273 107.855 59.7921 105.713L57.687 105.122C57.133 106.599 55.8496 107.338 54.1415 107.338C51.584 107.338 49.8205 105.685 49.7189 102.648H60.0137V101.724C60.0137 96.4432 56.8745 94.6335 53.9199 94.6335C50.079 94.6335 47.5307 97.6619 47.5307 102.02C47.5307 106.378 50.0421 109.295 54.1415 109.295ZM49.7189 100.764C49.8667 98.5575 51.427 96.5909 53.9199 96.5909C56.2836 96.5909 57.7978 98.3636 57.7978 100.764H49.7189ZM63.3283 109H65.5073V100.026C65.5073 98.1051 67.0215 96.7017 69.0897 96.7017C69.6713 96.7017 70.2715 96.8125 70.4192 96.8494V94.6335C70.1699 94.6151 69.5975 94.5966 69.2743 94.5966C67.5755 94.5966 66.0982 95.5568 65.5811 96.9602H65.4334V94.8182H63.3283V109ZM73.0021 114.318H75.1811V106.821H75.3658C75.8459 107.597 76.7692 109.295 79.5021 109.295C83.0476 109.295 85.522 106.452 85.522 101.946C85.522 97.4773 83.0476 94.6335 79.4652 94.6335C76.6953 94.6335 75.8459 96.3324 75.3658 97.071H75.1072V94.8182H73.0021V114.318ZM75.1442 101.909C75.1442 98.733 76.5476 96.5909 79.2067 96.5909C81.9766 96.5909 83.343 98.9176 83.343 101.909C83.343 104.938 81.9396 107.338 79.2067 107.338C76.5845 107.338 75.1442 105.122 75.1442 101.909ZM88.8459 109H91.0249V100.026C91.0249 98.1051 92.5391 96.7017 94.6072 96.7017C95.1889 96.7017 95.7891 96.8125 95.9368 96.8494V94.6335C95.6875 94.6151 95.1151 94.5966 94.7919 94.5966C93.093 94.5966 91.6158 95.5568 91.0987 96.9602H90.951V94.8182H88.8459V109ZM98.5197 109H100.699V94.8182H98.5197V109ZM99.6277 92.4545C100.477 92.4545 101.179 91.7898 101.179 90.9773C101.179 90.1648 100.477 89.5 99.6277 89.5C98.7782 89.5 98.0765 90.1648 98.0765 90.9773C98.0765 91.7898 98.7782 92.4545 99.6277 92.4545ZM114.735 97.9943C114.052 95.9815 112.519 94.6335 109.712 94.6335C106.721 94.6335 104.505 96.3324 104.505 98.733C104.505 100.69 105.668 102.001 108.272 102.611L110.636 103.165C112.067 103.497 112.741 104.18 112.741 105.159C112.741 106.378 111.448 107.375 109.417 107.375C107.635 107.375 106.518 106.609 106.13 105.085L104.062 105.602C104.57 108.012 106.555 109.295 109.454 109.295C112.75 109.295 114.994 107.495 114.994 105.048C114.994 103.072 113.756 101.826 111.227 101.207L109.121 100.69C107.441 100.275 106.684 99.7116 106.684 98.6222C106.684 97.4034 107.977 96.517 109.712 96.517C111.614 96.517 112.399 97.5696 112.778 98.5483L114.735 97.9943ZM124.22 109.295C127.1 109.295 129.205 107.855 129.87 105.713L127.765 105.122C127.211 106.599 125.928 107.338 124.22 107.338C121.662 107.338 119.899 105.685 119.797 102.648H130.092V101.724C130.092 96.4432 126.953 94.6335 123.998 94.6335C120.157 94.6335 117.609 97.6619 117.609 102.02C117.609 106.378 120.12 109.295 124.22 109.295ZM119.797 100.764C119.945 98.5575 121.505 96.5909 123.998 96.5909C126.362 96.5909 127.876 98.3636 127.876 100.764H119.797ZM156.23 96C155.529 92.1222 152.426 89.8324 148.622 89.8324C143.784 89.8324 140.276 93.5625 140.276 99.5455C140.276 105.528 143.784 109.259 148.622 109.259C152.426 109.259 155.529 106.969 156.23 103.091H153.941C153.387 105.713 151.134 107.116 148.622 107.116C145.188 107.116 142.492 104.457 142.492 99.5455C142.492 94.6335 145.188 91.9744 148.622 91.9744C151.134 91.9744 153.387 93.3778 153.941 96H156.23ZM159.93 90.0909V109H162.072V94.6335H162.257L168.166 109H170.234L176.143 94.6335H176.328V109H178.47V90.0909H175.737L169.311 105.787H169.089L162.663 90.0909H159.93ZM193.402 94.8182H195.618C195.517 91.9652 192.885 89.8324 189.229 89.8324C185.61 89.8324 182.766 91.9375 182.766 95.1136C182.766 97.6619 184.612 99.1761 187.567 100.026L189.894 100.69C191.888 101.244 193.661 101.946 193.661 103.83C193.661 105.898 191.666 107.264 189.044 107.264C186.791 107.264 184.797 106.267 184.612 104.125H182.249C182.47 107.227 184.982 109.332 189.044 109.332C193.402 109.332 195.877 106.932 195.877 103.866C195.877 100.321 192.516 99.1761 190.558 98.6591L188.638 98.142C187.235 97.7727 184.982 97.0341 184.982 95.0028C184.982 93.1932 186.644 91.8636 189.155 91.8636C191.445 91.8636 193.181 92.9531 193.402 94.8182ZM2.58239 154.148C3.49645 154.148 4.24432 153.4 4.24432 152.486C4.24432 151.572 3.49645 150.824 2.58239 150.824C1.66832 150.824 0.920455 151.572 0.920455 152.486C0.920455 153.4 1.66832 154.148 2.58239 154.148ZM9.2255 135.091H6.82493L13.7681 154H16.1317L23.0749 135.091H20.6744L15.0607 151.009H14.8391L9.2255 135.091ZM25.7248 154H27.9038V139.818H25.7248V154ZM26.8327 137.455C27.6822 137.455 28.3839 136.79 28.3839 135.977C28.3839 135.165 27.6822 134.5 26.8327 134.5C25.9833 134.5 25.2816 135.165 25.2816 135.977C25.2816 136.79 25.9833 137.455 26.8327 137.455ZM41.9402 142.994C41.2569 140.982 39.7243 139.634 36.9174 139.634C33.926 139.634 31.71 141.332 31.71 143.733C31.71 145.69 32.8734 147.001 35.4771 147.611L37.8407 148.165C39.2718 148.497 39.9458 149.18 39.9458 150.159C39.9458 151.378 38.6532 152.375 36.622 152.375C34.84 152.375 33.7228 151.609 33.335 150.085L31.2669 150.602C31.7747 153.012 33.7598 154.295 36.6589 154.295C39.9551 154.295 42.1987 152.495 42.1987 150.048C42.1987 148.072 40.9615 146.826 38.4316 146.207L36.3265 145.69C34.6461 145.275 33.889 144.712 33.889 143.622C33.889 142.403 35.1816 141.517 36.9174 141.517C38.8194 141.517 39.6042 142.57 39.9828 143.548L41.9402 142.994ZM54.4162 148.202C54.4162 150.861 52.3849 152.08 50.7599 152.08C48.9503 152.08 47.6577 150.75 47.6577 148.682V139.818H45.4787V148.83C45.4787 152.449 47.3991 154.185 50.0582 154.185C52.2003 154.185 53.6037 153.04 54.2685 151.599H54.4162V154H56.5952V139.818H54.4162V148.202ZM64.7594 154.332C67.2338 154.332 68.5265 153.003 68.9696 152.08H69.0804V154H71.2594V144.656C71.2594 140.151 67.8248 139.634 66.0151 139.634C63.873 139.634 61.4355 140.372 60.3276 142.957L62.3958 143.696C62.8759 142.662 64.0115 141.554 66.089 141.554C68.0925 141.554 69.0804 142.616 69.0804 144.435V144.509C69.0804 145.561 68.0094 145.469 65.4242 145.801C62.7928 146.143 59.9213 146.724 59.9213 149.974C59.9213 152.744 62.0634 154.332 64.7594 154.332ZM65.0918 152.375C63.356 152.375 62.1003 151.599 62.1003 150.085C62.1003 148.423 63.6145 147.906 65.3134 147.685C66.2367 147.574 68.7111 147.315 69.0804 146.872V148.866C69.0804 150.639 67.677 152.375 65.0918 152.375ZM77.4155 135.091H75.2365V154H77.4155V135.091ZM99.3553 139.818H101.571C101.47 136.965 98.8382 134.832 95.182 134.832C91.5627 134.832 88.7189 136.938 88.7189 140.114C88.7189 142.662 90.5655 144.176 93.5201 145.026L95.8468 145.69C97.8411 146.244 99.6138 146.946 99.6138 148.83C99.6138 150.898 97.6195 152.264 94.9973 152.264C92.7445 152.264 90.7502 151.267 90.5655 149.125H88.2019C88.4235 152.227 90.9348 154.332 94.9973 154.332C99.3553 154.332 101.83 151.932 101.83 148.866C101.83 145.321 98.4689 144.176 96.5115 143.659L94.5911 143.142C93.1877 142.773 90.9348 142.034 90.9348 140.003C90.9348 138.193 92.5968 136.864 95.1081 136.864C97.3979 136.864 99.1337 137.953 99.3553 139.818ZM111.467 139.818H108.438V136.42H106.259V139.818H104.117V141.665H106.259V150.528C106.259 153.003 108.254 154.185 110.1 154.185C110.913 154.185 111.43 154.037 111.725 153.926L111.282 151.969C111.097 152.006 110.802 152.08 110.322 152.08C109.362 152.08 108.438 151.784 108.438 149.938V141.665H111.467V139.818ZM123.682 148.202C123.682 150.861 121.651 152.08 120.026 152.08C118.216 152.08 116.923 150.75 116.923 148.682V139.818H114.744V148.83C114.744 152.449 116.665 154.185 119.324 154.185C121.466 154.185 122.869 153.04 123.534 151.599H123.682V154H125.861V139.818H123.682V148.202ZM135.207 154.295C137.94 154.295 138.863 152.597 139.343 151.821H139.602V154H141.707V135.091H139.528V142.071H139.343C138.863 141.332 138.014 139.634 135.244 139.634C131.661 139.634 129.187 142.477 129.187 146.946C129.187 151.452 131.661 154.295 135.207 154.295ZM135.502 152.338C132.769 152.338 131.366 149.938 131.366 146.909C131.366 143.918 132.732 141.591 135.502 141.591C138.161 141.591 139.565 143.733 139.565 146.909C139.565 150.122 138.124 152.338 135.502 152.338ZM146 154H148.179V139.818H146V154ZM147.108 137.455C147.958 137.455 148.659 136.79 148.659 135.977C148.659 135.165 147.958 134.5 147.108 134.5C146.259 134.5 145.557 135.165 145.557 135.977C145.557 136.79 146.259 137.455 147.108 137.455ZM157.931 154.295C161.772 154.295 164.358 151.378 164.358 146.983C164.358 142.551 161.772 139.634 157.931 139.634C154.091 139.634 151.505 142.551 151.505 146.983C151.505 151.378 154.091 154.295 157.931 154.295ZM157.931 152.338C155.014 152.338 153.684 149.827 153.684 146.983C153.684 144.139 155.014 141.591 157.931 141.591C160.849 141.591 162.179 144.139 162.179 146.983C162.179 149.827 160.849 152.338 157.931 152.338ZM2.58239 199.148C3.49645 199.148 4.24432 198.4 4.24432 197.486C4.24432 196.572 3.49645 195.824 2.58239 195.824C1.66832 195.824 0.920455 196.572 0.920455 197.486C0.920455 198.4 1.66832 199.148 2.58239 199.148ZM9.2255 199L11.1275 193.645H18.7724L20.6744 199H23.0749L16.1317 180.091H13.7681L6.82493 199H9.2255ZM11.8477 191.614L14.8761 183.082H15.0238L18.0522 191.614H11.8477ZM31.0799 199.295C33.8129 199.295 34.7362 197.597 35.2163 196.821H35.4748V199H37.5799V180.091H35.4009V187.071H35.2163C34.7362 186.332 33.8867 184.634 31.1168 184.634C27.5344 184.634 25.06 187.477 25.06 191.946C25.06 196.452 27.5344 199.295 31.0799 199.295ZM31.3754 197.338C28.6424 197.338 27.239 194.938 27.239 191.909C27.239 188.918 28.6055 186.591 31.3754 186.591C34.0344 186.591 35.4379 188.733 35.4379 191.909C35.4379 195.122 33.9975 197.338 31.3754 197.338ZM47.6346 199.295C51.4755 199.295 54.0607 196.378 54.0607 191.983C54.0607 187.551 51.4755 184.634 47.6346 184.634C43.7937 184.634 41.2085 187.551 41.2085 191.983C41.2085 196.378 43.7937 199.295 47.6346 199.295ZM47.6346 197.338C44.717 197.338 43.3874 194.827 43.3874 191.983C43.3874 189.139 44.717 186.591 47.6346 186.591C50.5522 186.591 51.8817 189.139 51.8817 191.983C51.8817 194.827 50.5522 197.338 47.6346 197.338ZM57.6824 199H59.7875V196.821H60.046C60.5261 197.597 61.4494 199.295 64.1824 199.295C67.7278 199.295 70.2022 196.452 70.2022 191.946C70.2022 187.477 67.7278 184.634 64.1454 184.634C61.3755 184.634 60.5261 186.332 60.046 187.071H59.8613V180.091H57.6824V199ZM59.8244 191.909C59.8244 188.733 61.2278 186.591 63.8869 186.591C66.6568 186.591 68.0233 188.918 68.0233 191.909C68.0233 194.938 66.6199 197.338 63.8869 197.338C61.2647 197.338 59.8244 195.122 59.8244 191.909ZM79.4814 199.295C82.362 199.295 84.4672 197.855 85.1319 195.713L83.0268 195.122C82.4728 196.599 81.1895 197.338 79.4814 197.338C76.9238 197.338 75.1603 195.685 75.0588 192.648H85.3535V191.724C85.3535 186.443 82.2143 184.634 79.2598 184.634C75.4189 184.634 72.8706 187.662 72.8706 192.02C72.8706 196.378 75.3819 199.295 79.4814 199.295ZM75.0588 190.764C75.2065 188.558 76.7669 186.591 79.2598 186.591C81.6234 186.591 83.1376 188.364 83.1376 190.764H75.0588ZM111.492 186C110.79 182.122 107.688 179.832 103.884 179.832C99.046 179.832 95.5375 183.562 95.5375 189.545C95.5375 195.528 99.046 199.259 103.884 199.259C107.688 199.259 110.79 196.969 111.492 193.091H109.202C108.648 195.713 106.395 197.116 103.884 197.116C100.449 197.116 97.7534 194.457 97.7534 189.545C97.7534 184.634 100.449 181.974 103.884 181.974C106.395 181.974 108.648 183.378 109.202 186H111.492ZM114.897 199H117.076V190.026C117.076 188.105 118.59 186.702 120.658 186.702C121.24 186.702 121.84 186.812 121.988 186.849V184.634C121.738 184.615 121.166 184.597 120.843 184.597C119.144 184.597 117.667 185.557 117.15 186.96H117.002V184.818H114.897V199ZM130.085 199.295C132.966 199.295 135.071 197.855 135.735 195.713L133.63 195.122C133.076 196.599 131.793 197.338 130.085 197.338C127.527 197.338 125.764 195.685 125.662 192.648H135.957V191.724C135.957 186.443 132.818 184.634 129.863 184.634C126.022 184.634 123.474 187.662 123.474 192.02C123.474 196.378 125.985 199.295 130.085 199.295ZM125.662 190.764C125.81 188.558 127.37 186.591 129.863 186.591C132.227 186.591 133.741 188.364 133.741 190.764H125.662ZM143.445 199.332C145.919 199.332 147.212 198.003 147.655 197.08H147.766V199H149.945V189.656C149.945 185.151 146.51 184.634 144.701 184.634C142.559 184.634 140.121 185.372 139.013 187.957L141.081 188.696C141.561 187.662 142.697 186.554 144.775 186.554C146.778 186.554 147.766 187.616 147.766 189.435V189.509C147.766 190.561 146.695 190.469 144.11 190.801C141.478 191.143 138.607 191.724 138.607 194.974C138.607 197.744 140.749 199.332 143.445 199.332ZM143.777 197.375C142.042 197.375 140.786 196.599 140.786 195.085C140.786 193.423 142.3 192.906 143.999 192.685C144.922 192.574 147.397 192.315 147.766 191.872V193.866C147.766 195.639 146.363 197.375 143.777 197.375ZM160.09 184.818H157.061V181.42H154.882V184.818H152.74V186.665H154.882V195.528C154.882 198.003 156.877 199.185 158.723 199.185C159.536 199.185 160.053 199.037 160.348 198.926L159.905 196.969C159.72 197.006 159.425 197.08 158.945 197.08C157.985 197.08 157.061 196.784 157.061 194.938V186.665H160.09V184.818ZM163.367 199H165.546V184.818H163.367V199ZM164.475 182.455C165.325 182.455 166.026 181.79 166.026 180.977C166.026 180.165 165.325 179.5 164.475 179.5C163.626 179.5 162.924 180.165 162.924 180.977C162.924 181.79 163.626 182.455 164.475 182.455ZM181.134 184.818H178.77L174.855 196.119H174.708L170.793 184.818H168.429L173.674 199H175.89L181.134 184.818ZM189.448 199.295C192.329 199.295 194.434 197.855 195.099 195.713L192.994 195.122C192.44 196.599 191.156 197.338 189.448 197.338C186.891 197.338 185.127 195.685 185.026 192.648H195.32V191.724C195.32 186.443 192.181 184.634 189.227 184.634C185.386 184.634 182.837 187.662 182.837 192.02C182.837 196.378 185.349 199.295 189.448 199.295ZM185.026 190.764C185.173 188.558 186.734 186.591 189.227 186.591C191.59 186.591 193.104 188.364 193.104 190.764H185.026ZM221.459 186C220.757 182.122 217.655 179.832 213.851 179.832C209.013 179.832 205.504 183.562 205.504 189.545C205.504 195.528 209.013 199.259 213.851 199.259C217.655 199.259 220.757 196.969 221.459 193.091H219.169C218.615 195.713 216.362 197.116 213.851 197.116C210.416 197.116 207.72 194.457 207.72 189.545C207.72 184.634 210.416 181.974 213.851 181.974C216.362 181.974 218.615 183.378 219.169 186H221.459ZM227.042 180.091H224.863V199H227.042V180.091ZM236.795 199.295C240.636 199.295 243.221 196.378 243.221 191.983C243.221 187.551 240.636 184.634 236.795 184.634C232.954 184.634 230.369 187.551 230.369 191.983C230.369 196.378 232.954 199.295 236.795 199.295ZM236.795 197.338C233.877 197.338 232.548 194.827 232.548 191.983C232.548 189.139 233.877 186.591 236.795 186.591C239.712 186.591 241.042 189.139 241.042 191.983C241.042 194.827 239.712 197.338 236.795 197.338ZM255.485 193.202C255.485 195.861 253.453 197.08 251.828 197.08C250.019 197.08 248.726 195.75 248.726 193.682V184.818H246.547V193.83C246.547 197.449 248.468 199.185 251.127 199.185C253.269 199.185 254.672 198.04 255.337 196.599H255.485V199H257.664V184.818H255.485V193.202ZM267.01 199.295C269.743 199.295 270.666 197.597 271.146 196.821H271.404V199H273.51V180.091H271.331V187.071H271.146C270.666 186.332 269.816 184.634 267.047 184.634C263.464 184.634 260.99 187.477 260.99 191.946C260.99 196.452 263.464 199.295 267.01 199.295ZM267.305 197.338C264.572 197.338 263.169 194.938 263.169 191.909C263.169 188.918 264.535 186.591 267.305 186.591C269.964 186.591 271.368 188.733 271.368 191.909C271.368 195.122 269.927 197.338 267.305 197.338Z" fill="#FBFBFB"/>
</svg>
