<svg width="39" height="36" viewBox="0 0 39 36" fill="none" xmlns="http://www.w3.org/2000/svg">
<path d="M1.99072 33.5645V27.8223C5.42008 29.0983 9.29606 29.7363 13.6187 29.7363C18.8664 29.7363 21.4902 27.9818 21.4902 24.4727C21.4902 21.9206 19.8792 20.6445 16.6572 20.6445H11.2979C4.29557 20.6445 0.794434 17.4544 0.794434 11.0742C0.794434 4.05599 5.77897 0.546875 15.748 0.546875C19.5762 0.546875 23.2049 1.10514 26.6343 2.22168V7.96387C23.2049 6.68783 19.5762 6.0498 15.748 6.0498C10.0059 6.0498 7.13477 7.72461 7.13477 11.0742C7.13477 13.6263 8.52246 14.9023 11.2979 14.9023H16.6572C24.1061 14.9023 27.8306 18.0924 27.8306 24.4727C27.8306 31.6504 23.0933 35.2393 13.6187 35.2393C9.29606 35.2393 5.42008 34.681 1.99072 33.5645ZM38.3579 29.1382V35H32.0176V29.1382H38.3579Z" fill="#FBFBFB"/>
</svg>
